<?xml version="1.0" encoding="UTF-8" standalone="no"?>
<mlt LC_NUMERIC="C" version="6.23.0" title="Shotcut version 20.09.13" producer="main_bin">
  <profile description="PAL 4:3 DV or DVD" width="1920" height="1080" progressive="1" sample_aspect_num="1" sample_aspect_den="1" display_aspect_num="16" display_aspect_den="9" frame_rate_num="30000" frame_rate_den="1001" colorspace="709"/>
  <producer id="producer0" in="00:00:00.000" out="03:59:59.993">
    <property name="length">03:59:60.027</property>
    <property name="eof">pause</property>
    <property name="resource">#00000000</property>
    <property name="aspect_ratio">1</property>
    <property name="mlt_service">color</property>
    <property name="mlt_image_format">rgb24a</property>
    <property name="shotcut:caption">transparent</property>
    <property name="shotcut:detail">transparent</property>
    <property name="ignore_points">0</property>
    <property name="global_feed">1</property>
    <property name="xml">was here</property>
    <property name="seekable">1</property>
    <filter id="filter0" out="00:00:03.971">
      <property name="argument">ARQUITETURA DO HUMANISMO</property>
      <property name="geometry">0 810 1920 270 1</property>
      <property name="family">Sans</property>
      <property name="size">60</property>
      <property name="weight">750</property>
      <property name="style">normal</property>
      <property name="fgcolour">#ffffffff</property>
      <property name="bgcolour">#00000000</property>
      <property name="olcolour">#aa000000</property>
      <property name="pad">0</property>
      <property name="halign">center</property>
      <property name="valign">top</property>
      <property name="outline">3</property>
      <property name="mlt_service">dynamictext</property>
      <property name="shotcut:filter">dynamicText</property>
      <property name="shotcut:usePointSize">1</property>
      <property name="shotcut:pointSize">60</property>
    </filter>
  </producer>
  <producer id="producer1" in="00:00:00.000" out="00:00:09.977">
    <property name="length">00:00:10.010</property>
    <property name="eof">pause</property>
    <property name="resource">/Users/palazzo/unb.br/TAU 0006 - Equipe - Documentos/Equipe/_vinheta/_abertura.mp4</property>
    <property name="audio_index">1</property>
    <property name="video_index">0</property>
    <property name="mute_on_pause">0</property>
    <property name="mlt_service">avformat-novalidate</property>
    <property name="seekable">1</property>
    <property name="aspect_ratio">1</property>
    <property name="creation_time">2020-09-12T09:11:34</property>
    <property name="global_feed">1</property>
    <property name="xml">was here</property>
    <property name="shotcut:hash">61b63a74b291d418a262ba5fa892e778</property>
  </producer>
  <producer id="producer2" in="00:00:00.000" out="00:00:25.492">
    <property name="length">00:00:25.526</property>
    <property name="eof">pause</property>
    <property name="resource">/Users/palazzo/unb.br/TAU 0006 - Equipe - Documentos/Equipe/_vinheta/_encerramento.mp4</property>
    <property name="audio_index">1</property>
    <property name="video_index">0</property>
    <property name="mute_on_pause">0</property>
    <property name="mlt_service">avformat-novalidate</property>
    <property name="seekable">1</property>
    <property name="aspect_ratio">1</property>
    <property name="creation_time">2020-09-12T09:11:39</property>
    <property name="global_feed">1</property>
    <property name="xml">was here</property>
    <property name="shotcut:hash">1b06c7a3d541bc216759d720a5e64aa3</property>
  </producer>
  <producer id="producer3" in="00:00:00.000" out="00:08:58.025">
    <property name="length">00:08:58.058</property>
    <property name="eof">pause</property>
    <property name="resource">04.1-slides.mp3</property>
    <property name="audio_index">0</property>
    <property name="video_index">-1</property>
    <property name="mute_on_pause">0</property>
    <property name="mlt_service">avformat-novalidate</property>
    <property name="seekable">1</property>
    <property name="creation_time">2020-09-28T21:30:44</property>
    <property name="global_feed">1</property>
    <property name="xml">was here</property>
    <property name="shotcut:hash">a6d715310bcb5e425f51fd72c1882d56</property>
    <property name="ignore_points">1</property>
    <property name="shotcut:caption">04.1-slides.mp3</property>
  </producer>
  <producer id="producer4" in="00:00:00.000" out="00:02:40.407">
    <property name="length">00:02:40.440</property>
    <property name="eof">pause</property>
    <property name="resource">04.1-camera.mp4</property>
    <property name="audio_index">1</property>
    <property name="video_index">0</property>
    <property name="mute_on_pause">0</property>
    <property name="mlt_service">avformat-novalidate</property>
    <property name="seekable">1</property>
    <property name="aspect_ratio">1</property>
    <property name="creation_time">2020-09-28T21:31:28</property>
    <property name="global_feed">1</property>
    <property name="xml">was here</property>
    <property name="shotcut:hash">9c26f1b4a712dac1e3ec80527b0bdf31</property>
  </producer>
  <producer id="producer5" in="00:00:00.000" out="03:59:59.993">
    <property name="length">03:59:60.027</property>
    <property name="eof">pause</property>
    <property name="resource">cu31924014760353_0013.png</property>
    <property name="ttl">1</property>
    <property name="aspect_ratio">1</property>
    <property name="progressive">1</property>
    <property name="seekable">1</property>
    <property name="mlt_service">qimage</property>
    <property name="creation_time">2020-09-23T13:07:59</property>
    <property name="global_feed">1</property>
    <property name="xml">was here</property>
    <property name="shotcut:hash">f09f02571a444934fbee22dc69c7e501</property>
  </producer>
  <producer id="producer6" in="00:00:00.000" out="03:59:59.993">
    <property name="length">03:59:60.027</property>
    <property name="eof">pause</property>
    <property name="resource">alberti-gulbenkian.webp</property>
    <property name="ttl">1</property>
    <property name="aspect_ratio">1</property>
    <property name="progressive">1</property>
    <property name="seekable">1</property>
    <property name="mlt_service">qimage</property>
    <property name="creation_time">2020-09-24T00:05:32</property>
    <property name="global_feed">1</property>
    <property name="xml">was here</property>
    <property name="shotcut:hash">129e18151b12c68418137ad98a024e7d</property>
  </producer>
  <producer id="producer7" in="00:00:00.000" out="00:23:11.979">
    <property name="length">00:23:12.012</property>
    <property name="eof">pause</property>
    <property name="resource">/Users/palazzo/unb.br/TAU 0006 - Equipe - Documentos/Equipe/02-renascimento/02.4-gravacoes/Florence   Medici_ Brunelleschi _ the Dome.mp4</property>
    <property name="audio_index">1</property>
    <property name="video_index">0</property>
    <property name="mute_on_pause">0</property>
    <property name="mlt_service">avformat-novalidate</property>
    <property name="seekable">1</property>
    <property name="aspect_ratio">1</property>
    <property name="creation_time">2020-09-12T11:23:25</property>
    <property name="global_feed">1</property>
    <property name="xml">was here</property>
    <property name="shotcut:hash">ce6fdd15d60ad97d420e5b6f062c0db4</property>
  </producer>
  <producer id="producer8" in="00:00:00.000" out="03:59:59.993">
    <property name="length">03:59:60.027</property>
    <property name="eof">pause</property>
    <property name="resource">dreamstime_l_141205745.jpg</property>
    <property name="ttl">1</property>
    <property name="aspect_ratio">1</property>
    <property name="progressive">1</property>
    <property name="seekable">1</property>
    <property name="mlt_service">qimage</property>
    <property name="creation_time">2020-09-28T22:56:47</property>
    <property name="global_feed">1</property>
    <property name="xml">was here</property>
    <property name="shotcut:hash">d7e0bdcf46255db3f7416a72570b38e6</property>
  </producer>
  <producer id="producer9" in="00:00:00.000" out="03:59:59.993">
    <property name="length">03:59:60.027</property>
    <property name="eof">pause</property>
    <property name="resource">cinqveordinidarc00vign_0010.jpg</property>
    <property name="ttl">1</property>
    <property name="aspect_ratio">1</property>
    <property name="progressive">1</property>
    <property name="seekable">1</property>
    <property name="mlt_service">qimage</property>
    <property name="creation_time">2020-09-23T21:12:15</property>
    <property name="global_feed">1</property>
    <property name="xml">was here</property>
    <property name="shotcut:hash">d2d20641900db446115c3e2828431629</property>
  </producer>
  <producer id="producer10" in="00:00:00.000" out="03:59:59.993">
    <property name="length">03:59:60.027</property>
    <property name="eof">pause</property>
    <property name="resource">1080p-firmitas-utilitas-venustas.png</property>
    <property name="ttl">1</property>
    <property name="aspect_ratio">1</property>
    <property name="progressive">1</property>
    <property name="seekable">1</property>
    <property name="mlt_service">qimage</property>
    <property name="creation_time">2020-09-28T23:42:27</property>
    <property name="global_feed">1</property>
    <property name="xml">was here</property>
    <property name="shotcut:hash">d60ffa1c7fbfd8a0990e681f4489b573</property>
  </producer>
  <producer id="producer11" in="00:00:00.000" out="03:59:59.993">
    <property name="length">03:59:60.027</property>
    <property name="eof">pause</property>
    <property name="resource">Da_Vinci_Vitruve_Luc_Viatour.jpg</property>
    <property name="ttl">1</property>
    <property name="aspect_ratio">1</property>
    <property name="progressive">1</property>
    <property name="seekable">1</property>
    <property name="mlt_service">qimage</property>
    <property name="creation_time">2020-09-28T02:18:27</property>
    <property name="global_feed">1</property>
    <property name="xml">was here</property>
    <property name="shotcut:hash">654b519afa63870f34ef73893ed30613</property>
  </producer>
  <producer id="producer12" in="00:00:00.000" out="03:59:59.993">
    <property name="length">03:59:60.027</property>
    <property name="eof">pause</property>
    <property name="resource">giorgio-vitruviano.jpg</property>
    <property name="ttl">1</property>
    <property name="aspect_ratio">1</property>
    <property name="progressive">1</property>
    <property name="seekable">1</property>
    <property name="mlt_service">qimage</property>
    <property name="creation_time">2020-09-23T17:43:43</property>
    <property name="global_feed">1</property>
    <property name="xml">was here</property>
    <property name="shotcut:hash">6c59eca4da6efb7248b81572a6d5c9ea</property>
  </producer>
  <producer id="producer13" in="00:00:00.000" out="03:59:59.993">
    <property name="length">03:59:60.027</property>
    <property name="eof">pause</property>
    <property name="resource">Indelible-Images-Vitruvian-Man-manuscript-drawing-2.jpg__600x0_q85_upscale.jpg</property>
    <property name="ttl">1</property>
    <property name="aspect_ratio">1</property>
    <property name="progressive">1</property>
    <property name="seekable">1</property>
    <property name="mlt_service">qimage</property>
    <property name="creation_time">2020-09-23T18:01:17</property>
    <property name="global_feed">1</property>
    <property name="xml">was here</property>
    <property name="shotcut:hash">e28c0b45fcf0f0c0a983ae6eef49aca0</property>
  </producer>
  <producer id="producer14" in="00:00:00.000" out="03:59:59.993">
    <property name="length">03:59:60.027</property>
    <property name="eof">pause</property>
    <property name="resource">sferae.jpg</property>
    <property name="ttl">1</property>
    <property name="aspect_ratio">1</property>
    <property name="progressive">1</property>
    <property name="seekable">1</property>
    <property name="mlt_service">qimage</property>
    <property name="creation_time">2020-09-23T18:01:54</property>
    <property name="global_feed">1</property>
    <property name="xml">was here</property>
    <property name="shotcut:hash">946e884388fea88d0f5fbb2c193d4ae9</property>
  </producer>
  <producer id="producer15" in="00:00:00.000" out="03:59:59.993">
    <property name="length">03:59:60.027</property>
    <property name="eof">pause</property>
    <property name="resource">Chinese-Wooden-Loupan-Feng-Shui-Compass-pic-1A-2048-38fe030b-f.png</property>
    <property name="ttl">1</property>
    <property name="aspect_ratio">1</property>
    <property name="progressive">1</property>
    <property name="seekable">1</property>
    <property name="mlt_service">qimage</property>
    <property name="creation_time">2020-09-23T18:48:15</property>
    <property name="global_feed">1</property>
    <property name="xml">was here</property>
    <property name="shotcut:hash">0960d7fe30dcd7e6e0dd6ea268b124f2</property>
  </producer>
  <producer id="producer16" in="00:00:00.000" out="03:59:59.993">
    <property name="length">03:59:60.027</property>
    <property name="eof">pause</property>
    <property name="resource">86921-ds_48_-_francesco_di_giorgio_martini_-_disegni_di_macchine_e.jpg</property>
    <property name="ttl">1</property>
    <property name="aspect_ratio">1</property>
    <property name="progressive">1</property>
    <property name="seekable">1</property>
    <property name="mlt_service">qimage</property>
    <property name="creation_time">2020-09-23T19:03:33</property>
    <property name="global_feed">1</property>
    <property name="xml">was here</property>
    <property name="shotcut:hash">0eb6584c9fff9f94854b07f2f1962887</property>
  </producer>
  <producer id="producer17" in="00:00:00.000" out="03:59:59.993">
    <property name="length">03:59:60.027</property>
    <property name="eof">pause</property>
    <property name="resource">di_giorgio_martini_francesco_trattato_architettura_1482.png</property>
    <property name="ttl">1</property>
    <property name="aspect_ratio">1</property>
    <property name="progressive">1</property>
    <property name="seekable">1</property>
    <property name="mlt_service">qimage</property>
    <property name="creation_time">2020-09-23T19:11:59</property>
    <property name="global_feed">1</property>
    <property name="xml">was here</property>
    <property name="shotcut:hash">7eab8cc2bb29a153353b13264d2c9edd</property>
  </producer>
  <producer id="producer18" in="00:00:00.000" out="03:59:59.993">
    <property name="length">03:59:60.027</property>
    <property name="eof">pause</property>
    <property name="resource">Giorgio-El-cuerpo-inscripto-en-la-fachada-de-una-iglesia.png</property>
    <property name="ttl">1</property>
    <property name="aspect_ratio">1</property>
    <property name="progressive">1</property>
    <property name="seekable">1</property>
    <property name="mlt_service">qimage</property>
    <property name="creation_time">2020-09-28T02:27:37</property>
    <property name="global_feed">1</property>
    <property name="xml">was here</property>
    <property name="shotcut:hash">31fe5fbd22eb3cba19de2e4c017ee067</property>
  </producer>
  <producer id="producer19" in="00:00:00.000" out="03:59:59.993">
    <property name="length">03:59:60.027</property>
    <property name="eof">pause</property>
    <property name="resource">Estudio_Martini.jpg</property>
    <property name="ttl">1</property>
    <property name="aspect_ratio">1</property>
    <property name="progressive">1</property>
    <property name="seekable">1</property>
    <property name="mlt_service">qimage</property>
    <property name="creation_time">2020-09-29T00:29:32</property>
    <property name="global_feed">1</property>
    <property name="xml">was here</property>
    <property name="shotcut:hash">ae454d3ae8755d9932852e5e8af3d471</property>
  </producer>
  <producer id="producer20" in="00:00:00.000" out="03:59:59.993">
    <property name="length">03:59:60.027</property>
    <property name="eof">pause</property>
    <property name="resource">Figura_umana_sovrapposta_alla_pianta_di_una_cittadella.jpg</property>
    <property name="ttl">1</property>
    <property name="aspect_ratio">1</property>
    <property name="progressive">1</property>
    <property name="seekable">1</property>
    <property name="mlt_service">qimage</property>
    <property name="creation_time">2020-09-29T00:42:53</property>
    <property name="global_feed">1</property>
    <property name="xml">was here</property>
    <property name="shotcut:hash">de039aca654e281c7011352d929ce1e7</property>
  </producer>
  <producer id="producer21" in="00:00:00.000" out="03:59:59.993">
    <property name="length">03:59:60.027</property>
    <property name="eof">pause</property>
    <property name="resource">Shuteweb.jpg</property>
    <property name="ttl">1</property>
    <property name="aspect_ratio">1</property>
    <property name="progressive">1</property>
    <property name="seekable">1</property>
    <property name="mlt_service">qimage</property>
    <property name="creation_time">2020-09-29T00:50:10</property>
    <property name="global_feed">1</property>
    <property name="xml">was here</property>
    <property name="shotcut:hash">c47accddb9d682ab5cb426f1055230a3</property>
  </producer>
  <producer id="producer22" in="00:00:00.000" out="03:59:59.993">
    <property name="length">03:59:60.027</property>
    <property name="eof">pause</property>
    <property name="resource">Vignola_Regola_1562.JPG</property>
    <property name="ttl">1</property>
    <property name="aspect_ratio">1</property>
    <property name="progressive">1</property>
    <property name="seekable">1</property>
    <property name="mlt_service">qimage</property>
    <property name="creation_time">2020-09-29T00:57:14</property>
    <property name="global_feed">1</property>
    <property name="xml">was here</property>
    <property name="shotcut:hash">3bdd3e1a4be0991d659f02974cfef336</property>
  </producer>
  <producer id="producer23" in="00:00:00.000" out="03:59:59.993">
    <property name="length">03:59:60.027</property>
    <property name="eof">pause</property>
    <property name="resource">Claude_Perrault_Ordonnance_des_cinq_especes_de_colonnes_pl_I.jpg</property>
    <property name="ttl">1</property>
    <property name="aspect_ratio">1</property>
    <property name="progressive">1</property>
    <property name="seekable">1</property>
    <property name="mlt_service">qimage</property>
    <property name="creation_time">2020-08-28T21:18:40</property>
    <property name="global_feed">1</property>
    <property name="xml">was here</property>
    <property name="shotcut:hash">0ed306533428b6e7597dfa292a2b01a5</property>
  </producer>
  <producer id="producer24" in="00:00:00.000" out="03:59:59.993">
    <property name="length">03:59:60.027</property>
    <property name="eof">pause</property>
    <property name="resource">chitham2005-37.png</property>
    <property name="ttl">1</property>
    <property name="aspect_ratio">1</property>
    <property name="progressive">1</property>
    <property name="seekable">1</property>
    <property name="mlt_service">qimage</property>
    <property name="creation_time">2020-09-23T21:40:14</property>
    <property name="global_feed">1</property>
    <property name="xml">was here</property>
    <property name="shotcut:hash">87750a4e18425b51513494a1e2c99b13</property>
  </producer>
  <producer id="producer25" in="00:00:00.000" out="03:59:59.993">
    <property name="length">03:59:60.027</property>
    <property name="eof">pause</property>
    <property name="resource">School_of_Athens_Raphael_detail_01.jpg</property>
    <property name="ttl">1</property>
    <property name="aspect_ratio">1</property>
    <property name="progressive">1</property>
    <property name="seekable">1</property>
    <property name="mlt_service">qimage</property>
    <property name="creation_time">2020-09-29T01:14:33</property>
    <property name="global_feed">1</property>
    <property name="xml">was here</property>
    <property name="shotcut:hash">93c480b9eb56cf08434fe39fef8a9b5c</property>
  </producer>
  <producer id="producer26" in="00:00:00.000" out="03:59:59.993">
    <property name="length">03:59:60.027</property>
    <property name="eof">pause</property>
    <property name="resource">Epogdoon-Raphael.JPG</property>
    <property name="ttl">1</property>
    <property name="aspect_ratio">1</property>
    <property name="progressive">1</property>
    <property name="seekable">1</property>
    <property name="mlt_service">qimage</property>
    <property name="creation_time">2020-09-29T01:15:44</property>
    <property name="global_feed">1</property>
    <property name="xml">was here</property>
    <property name="shotcut:hash">b511f3c28b80d977ad5d7a8c239a5932</property>
  </producer>
  <producer id="producer27" in="00:00:00.000" out="03:59:59.993">
    <property name="length">03:59:60.027</property>
    <property name="eof">pause</property>
    <property name="resource">cesariano.png</property>
    <property name="ttl">1</property>
    <property name="aspect_ratio">1</property>
    <property name="progressive">1</property>
    <property name="seekable">1</property>
    <property name="mlt_service">qimage</property>
    <property name="creation_time">2020-09-29T01:30:42</property>
    <property name="global_feed">1</property>
    <property name="xml">was here</property>
    <property name="shotcut:hash">2dbb6f8e4d27b5ee213678527302973e</property>
  </producer>
  <playlist id="main_bin" title="Shotcut version 20.09.13">
    <property name="shotcut:projectAudioChannels">2</property>
    <property name="shotcut:projectFolder">1</property>
    <property name="xml_retain">1</property>
    <entry producer="producer0" in="00:00:00.000" out="00:00:03.971"/>
    <entry producer="producer1" in="00:00:00.000" out="00:00:09.977"/>
    <entry producer="producer2" in="00:00:00.000" out="00:00:25.492"/>
    <entry producer="producer3" in="00:00:00.000" out="00:08:58.025"/>
    <entry producer="producer4" in="00:00:00.000" out="00:02:40.407"/>
    <entry producer="producer5" in="00:00:00.000" out="00:00:03.971"/>
    <entry producer="producer6" in="00:00:00.000" out="00:00:03.971"/>
    <entry producer="producer7" in="00:00:00.000" out="00:23:11.979"/>
    <entry producer="producer8" in="00:00:00.000" out="00:00:03.971"/>
    <entry producer="producer9" in="00:00:00.000" out="00:00:03.971"/>
    <entry producer="producer10" in="00:00:00.000" out="00:00:03.971"/>
    <entry producer="producer11" in="00:00:00.000" out="00:00:03.971"/>
    <entry producer="producer12" in="00:00:00.000" out="00:00:03.971"/>
    <entry producer="producer13" in="00:00:00.000" out="00:00:03.971"/>
    <entry producer="producer14" in="00:00:00.000" out="00:00:03.971"/>
    <entry producer="producer15" in="00:00:00.000" out="00:00:03.971"/>
    <entry producer="producer16" in="00:00:00.000" out="00:00:03.971"/>
    <entry producer="producer17" in="00:00:00.000" out="00:00:03.971"/>
    <entry producer="producer18" in="00:00:00.000" out="00:00:03.971"/>
    <entry producer="producer19" in="00:00:00.000" out="00:00:03.971"/>
    <entry producer="producer20" in="00:00:00.000" out="00:00:03.971"/>
    <entry producer="producer21" in="00:00:00.000" out="00:00:03.971"/>
    <entry producer="producer22" in="00:00:00.000" out="00:00:03.971"/>
    <entry producer="producer23" in="00:00:00.000" out="00:00:03.971"/>
    <entry producer="producer24" in="00:00:00.000" out="00:00:03.971"/>
    <entry producer="producer25" in="00:00:00.000" out="00:00:03.971"/>
    <entry producer="producer26" in="00:00:00.000" out="00:00:03.971"/>
    <entry producer="producer27" in="00:00:00.000" out="00:00:03.971"/>
  </playlist>
  <producer id="black" in="00:00:00.000" out="00:08:36.603">
    <property name="length">00:08:36.637</property>
    <property name="eof">pause</property>
    <property name="resource">0</property>
    <property name="aspect_ratio">1</property>
    <property name="mlt_service">color</property>
    <property name="mlt_image_format">rgb24a</property>
    <property name="set.test_audio">0</property>
  </producer>
  <playlist id="background">
    <entry producer="black" in="00:00:00.000" out="00:08:36.603"/>
  </playlist>
  <producer id="producer28" in="00:00:00.000" out="00:00:09.977">
    <property name="length">00:00:10.010</property>
    <property name="eof">pause</property>
    <property name="resource">/Users/palazzo/unb.br/TAU 0006 - Equipe - Documentos/Equipe/_vinheta/_abertura.mp4</property>
    <property name="audio_index">1</property>
    <property name="video_index">0</property>
    <property name="mute_on_pause">0</property>
    <property name="mlt_service">avformat-novalidate</property>
    <property name="seekable">1</property>
    <property name="aspect_ratio">1</property>
    <property name="creation_time">2020-09-12T09:11:34</property>
    <property name="shotcut:hash">61b63a74b291d418a262ba5fa892e778</property>
    <property name="global_feed">1</property>
    <property name="shotcut:caption">_abertura.mp4</property>
    <property name="xml">was here</property>
  </producer>
  <producer id="producer29" in="00:00:00.000" out="00:00:25.492">
    <property name="length">00:00:25.526</property>
    <property name="eof">pause</property>
    <property name="resource">/Users/palazzo/unb.br/TAU 0006 - Equipe - Documentos/Equipe/_vinheta/_encerramento.mp4</property>
    <property name="audio_index">1</property>
    <property name="video_index">0</property>
    <property name="mute_on_pause">0</property>
    <property name="mlt_service">avformat-novalidate</property>
    <property name="seekable">1</property>
    <property name="aspect_ratio">1</property>
    <property name="creation_time">2020-09-12T09:11:39</property>
    <property name="global_feed">1</property>
    <property name="xml">was here</property>
    <property name="shotcut:hash">1b06c7a3d541bc216759d720a5e64aa3</property>
    <property name="shotcut:caption">_encerramento.mp4</property>
    <filter id="filter1" out="00:00:25.492">
      <property name="window">75</property>
      <property name="max_gain">20dB</property>
      <property name="level">00:00:00.000=-60;00:00:03.971=0</property>
      <property name="mlt_service">volume</property>
      <property name="shotcut:filter">fadeInVolume</property>
      <property name="shotcut:animIn">00:00:04.004</property>
    </filter>
  </producer>
  <playlist id="playlist0">
    <property name="shotcut:video">1</property>
    <property name="shotcut:name">Vinheta</property>
    <property name="shotcut:lock">0</property>
    <entry producer="producer28" in="00:00:00.000" out="00:00:09.977"/>
    <blank length="00:08:01.101"/>
    <entry producer="producer29" in="00:00:00.000" out="00:00:25.492"/>
  </playlist>
  <producer id="producer30" in="00:00:00.000" out="00:02:40.407">
    <property name="length">00:02:40.440</property>
    <property name="eof">pause</property>
    <property name="resource">04.1-camera.mp4</property>
    <property name="audio_index">1</property>
    <property name="video_index">0</property>
    <property name="mute_on_pause">0</property>
    <property name="mlt_service">avformat-novalidate</property>
    <property name="seekable">1</property>
    <property name="aspect_ratio">1</property>
    <property name="creation_time">2020-09-28T21:31:28</property>
    <property name="shotcut:hash">9c26f1b4a712dac1e3ec80527b0bdf31</property>
    <property name="ignore_points">0</property>
    <property name="shotcut:caption">04.1-camera.mp4</property>
    <property name="shotcut:skipConvert">1</property>
    <property name="global_feed">1</property>
    <property name="xml">was here</property>
    <filter id="filter2" in="00:00:03.670" out="00:01:02.202">
      <property name="background">color:#00000000</property>
      <property name="mlt_service">affine</property>
      <property name="shotcut:filter">affineSizePosition</property>
      <property name="transition.fill">1</property>
      <property name="transition.distort">0</property>
      <property name="transition.rect">-415 -337 2755 1550 1</property>
      <property name="transition.valign">middle</property>
      <property name="transition.halign">center</property>
      <property name="shotcut:animIn">00:00:00.000</property>
      <property name="shotcut:animOut">00:00:00.000</property>
      <property name="transition.threads">0</property>
      <property name="transition.fix_rotate_x">0</property>
    </filter>
    <filter id="filter3" in="00:00:03.670" out="00:01:02.202">
      <property name="start">1</property>
      <property name="level">00:00:00.000=0;00:00:00.467=1</property>
      <property name="mlt_service">brightness</property>
      <property name="shotcut:filter">fadeInBrightness</property>
      <property name="alpha">1</property>
      <property name="shotcut:animIn">15</property>
    </filter>
    <filter id="filter4" in="00:00:03.670" out="00:01:02.202">
      <property name="window">75</property>
      <property name="max_gain">20dB</property>
      <property name="level">00:00:00.000=-60;00:00:00.467=0</property>
      <property name="mlt_service">volume</property>
      <property name="shotcut:filter">fadeInVolume</property>
      <property name="shotcut:animIn">15</property>
    </filter>
  </producer>
  <producer id="producer31" in="00:00:00.000" out="00:02:40.407">
    <property name="length">00:02:40.440</property>
    <property name="eof">pause</property>
    <property name="resource">04.1-camera.mp4</property>
    <property name="audio_index">1</property>
    <property name="video_index">0</property>
    <property name="mute_on_pause">0</property>
    <property name="mlt_service">avformat-novalidate</property>
    <property name="seekable">1</property>
    <property name="aspect_ratio">1</property>
    <property name="creation_time">2020-09-28T21:31:28</property>
    <property name="shotcut:hash">9c26f1b4a712dac1e3ec80527b0bdf31</property>
    <property name="ignore_points">0</property>
    <property name="shotcut:caption">04.1-camera.mp4</property>
    <property name="shotcut:skipConvert">1</property>
    <property name="global_feed">1</property>
    <property name="xml">was here</property>
    <filter id="filter5" in="00:01:02.236" out="00:01:44.511">
      <property name="background">color:#00000000</property>
      <property name="mlt_service">affine</property>
      <property name="shotcut:filter">affineSizePosition</property>
      <property name="transition.fill">1</property>
      <property name="transition.distort">0</property>
      <property name="transition.rect">-189.5 -216 2304 1296 1</property>
      <property name="transition.valign">middle</property>
      <property name="transition.halign">center</property>
      <property name="shotcut:animIn">00:00:00.000</property>
      <property name="shotcut:animOut">00:00:00.000</property>
      <property name="transition.threads">0</property>
      <property name="transition.fix_rotate_x">0</property>
    </filter>
  </producer>
  <producer id="producer32" in="00:00:00.000" out="03:59:59.993">
    <property name="length">03:59:60.027</property>
    <property name="eof">pause</property>
    <property name="resource">1080p-firmitas-utilitas-venustas.png</property>
    <property name="ttl">1</property>
    <property name="aspect_ratio">1</property>
    <property name="progressive">1</property>
    <property name="seekable">1</property>
    <property name="mlt_service">qimage</property>
    <property name="creation_time">2020-09-28T23:42:27</property>
    <property name="global_feed">1</property>
    <property name="xml">was here</property>
    <property name="shotcut:hash">d60ffa1c7fbfd8a0990e681f4489b573</property>
    <property name="shotcut:caption">1080p-firmitas-utilitas-venustas.png</property>
    <filter id="filter6" out="00:00:16.350">
      <property name="background">color:#00000000</property>
      <property name="mlt_service">affine</property>
      <property name="shotcut:filter">affineSizePosition</property>
      <property name="transition.fill">1</property>
      <property name="transition.distort">0</property>
      <property name="transition.rect">00:00:00.501~=-672 -378 3264 1836 1;00:00:14.815~=0 0 1920 1080 1</property>
      <property name="transition.valign">middle</property>
      <property name="transition.halign">center</property>
      <property name="shotcut:animIn">00:00:00.000</property>
      <property name="shotcut:animOut">00:00:00.000</property>
      <property name="transition.threads">0</property>
      <property name="transition.fix_rotate_x">0</property>
    </filter>
  </producer>
  <producer id="producer33" in="00:00:00.000" out="00:02:40.407">
    <property name="length">00:02:40.440</property>
    <property name="eof">pause</property>
    <property name="resource">04.1-camera.mp4</property>
    <property name="audio_index">1</property>
    <property name="video_index">0</property>
    <property name="mute_on_pause">0</property>
    <property name="mlt_service">avformat-novalidate</property>
    <property name="seekable">1</property>
    <property name="aspect_ratio">1</property>
    <property name="creation_time">2020-09-28T21:31:28</property>
    <property name="shotcut:hash">9c26f1b4a712dac1e3ec80527b0bdf31</property>
    <property name="ignore_points">0</property>
    <property name="shotcut:caption">04.1-camera.mp4</property>
    <property name="shotcut:skipConvert">1</property>
    <property name="global_feed">1</property>
    <property name="xml">was here</property>
    <filter id="filter7" in="00:01:45.879" out="00:02:11.211">
      <property name="background">color:#00000000</property>
      <property name="mlt_service">affine</property>
      <property name="shotcut:filter">affineSizePosition</property>
      <property name="transition.fill">1</property>
      <property name="transition.distort">0</property>
      <property name="transition.rect">-366.5 -205.844 2304 1296 1</property>
      <property name="transition.valign">middle</property>
      <property name="transition.halign">center</property>
      <property name="shotcut:animIn">00:00:00.000</property>
      <property name="shotcut:animOut">00:00:00.000</property>
      <property name="transition.threads">0</property>
      <property name="transition.fix_rotate_x">0</property>
    </filter>
  </producer>
  <tractor id="tractor0" global_feed="1" in="00:00:00.000" out="00:00:00.767">
    <property name="shotcut:transition">lumaMix</property>
    <track producer="producer32" in="00:00:15.582" out="00:00:16.350"/>
    <track producer="producer33" in="00:01:45.879" out="00:01:46.647"/>
    <transition id="transition0" out="00:00:00.767">
      <property name="a_track">0</property>
      <property name="b_track">1</property>
      <property name="factory">loader</property>
      <property name="resource"></property>
      <property name="mlt_service">luma</property>
      <property name="alpha_over">1</property>
      <property name="progressive">1</property>
      <property name="invert">0</property>
      <property name="softness">0.2</property>
    </transition>
    <transition id="transition1" out="00:00:00.767">
      <property name="a_track">0</property>
      <property name="b_track">1</property>
      <property name="mlt_service">mix</property>
      <property name="start">-1</property>
      <property name="accepts_blanks">1</property>
    </transition>
  </tractor>
  <producer id="producer34" in="00:00:00.000" out="00:02:40.407">
    <property name="length">00:02:40.440</property>
    <property name="eof">pause</property>
    <property name="resource">04.1-camera.mp4</property>
    <property name="audio_index">1</property>
    <property name="video_index">0</property>
    <property name="mute_on_pause">0</property>
    <property name="mlt_service">avformat-novalidate</property>
    <property name="seekable">1</property>
    <property name="aspect_ratio">1</property>
    <property name="creation_time">2020-09-28T21:31:28</property>
    <property name="shotcut:hash">9c26f1b4a712dac1e3ec80527b0bdf31</property>
    <property name="ignore_points">0</property>
    <property name="shotcut:caption">04.1-camera.mp4</property>
    <property name="shotcut:skipConvert">1</property>
    <property name="global_feed">1</property>
    <property name="xml">was here</property>
    <filter id="filter8" in="00:02:11.245" out="00:02:37.638">
      <property name="start">1</property>
      <property name="level">00:00:25.893=1;00:00:26.393=0</property>
      <property name="mlt_service">brightness</property>
      <property name="shotcut:filter">fadeOutBrightness</property>
      <property name="alpha">1</property>
      <property name="shotcut:animOut">00:00:00.534</property>
    </filter>
    <filter id="filter9" in="00:02:11.245" out="00:02:37.638">
      <property name="start">1</property>
      <property name="level">00:00:25.893=1;00:00:26.393=0</property>
      <property name="mlt_service">brightness</property>
      <property name="shotcut:filter">fadeOutBrightness</property>
      <property name="alpha">1</property>
      <property name="shotcut:animOut">00:00:00.534</property>
    </filter>
  </producer>
  <playlist id="playlist1">
    <property name="shotcut:video">1</property>
    <property name="shotcut:name">Vídeos</property>
    <property name="shotcut:lock">0</property>
    <blank length="00:00:04.972"/>
    <entry producer="producer30" in="00:00:03.670" out="00:01:02.202"/>
    <entry producer="producer31" in="00:01:02.236" out="00:01:44.511"/>
    <blank length="00:05:24.258"/>
    <entry producer="producer32" in="00:00:00.000" out="00:00:15.549"/>
    <entry producer="tractor0" in="00:00:00.000" out="00:00:00.767"/>
    <entry producer="producer33" in="00:01:46.680" out="00:02:11.211"/>
    <entry producer="producer34" in="00:02:11.245" out="00:02:37.638"/>
  </playlist>
  <producer id="producer35" in="00:00:00.000" out="00:23:11.979">
    <property name="length">00:23:12.012</property>
    <property name="eof">pause</property>
    <property name="resource">/Users/palazzo/unb.br/TAU 0006 - Equipe - Documentos/Equipe/02-renascimento/02.4-gravacoes/Florence   Medici_ Brunelleschi _ the Dome.mp4</property>
    <property name="audio_index">1</property>
    <property name="video_index">0</property>
    <property name="mute_on_pause">0</property>
    <property name="mlt_service">avformat-novalidate</property>
    <property name="seekable">1</property>
    <property name="aspect_ratio">1</property>
    <property name="creation_time">2020-09-12T11:23:25</property>
    <property name="global_feed">1</property>
    <property name="xml">was here</property>
    <property name="shotcut:hash">ce6fdd15d60ad97d420e5b6f062c0db4</property>
    <property name="shotcut:caption">Florence   Medici_ Brunelleschi _ the Dome.mp4</property>
  </producer>
  <producer id="producer36" in="00:00:00.000" out="00:23:11.979">
    <property name="length">00:23:12.012</property>
    <property name="eof">pause</property>
    <property name="resource">/Users/palazzo/unb.br/TAU 0006 - Equipe - Documentos/Equipe/02-renascimento/02.4-gravacoes/Florence   Medici_ Brunelleschi _ the Dome.mp4</property>
    <property name="audio_index">1</property>
    <property name="video_index">0</property>
    <property name="mute_on_pause">0</property>
    <property name="mlt_service">avformat-novalidate</property>
    <property name="seekable">1</property>
    <property name="aspect_ratio">1</property>
    <property name="creation_time">2020-09-12T11:23:25</property>
    <property name="global_feed">1</property>
    <property name="xml">was here</property>
    <property name="shotcut:hash">ce6fdd15d60ad97d420e5b6f062c0db4</property>
    <property name="shotcut:caption">Florence   Medici_ Brunelleschi _ the Dome.mp4</property>
  </producer>
  <producer id="producer37" in="00:00:00.000" out="00:23:11.979">
    <property name="length">00:23:12.012</property>
    <property name="eof">pause</property>
    <property name="resource">/Users/palazzo/unb.br/TAU 0006 - Equipe - Documentos/Equipe/02-renascimento/02.4-gravacoes/Florence   Medici_ Brunelleschi _ the Dome.mp4</property>
    <property name="audio_index">1</property>
    <property name="video_index">0</property>
    <property name="mute_on_pause">0</property>
    <property name="mlt_service">avformat-novalidate</property>
    <property name="seekable">1</property>
    <property name="aspect_ratio">1</property>
    <property name="creation_time">2020-09-12T11:23:25</property>
    <property name="global_feed">1</property>
    <property name="xml">was here</property>
    <property name="shotcut:hash">ce6fdd15d60ad97d420e5b6f062c0db4</property>
    <property name="shotcut:caption">Florence   Medici_ Brunelleschi _ the Dome.mp4</property>
  </producer>
  <producer id="producer38" in="00:00:00.000" out="00:23:11.979">
    <property name="length">00:23:12.012</property>
    <property name="eof">pause</property>
    <property name="resource">/Users/palazzo/unb.br/TAU 0006 - Equipe - Documentos/Equipe/02-renascimento/02.4-gravacoes/Florence   Medici_ Brunelleschi _ the Dome.mp4</property>
    <property name="audio_index">1</property>
    <property name="video_index">0</property>
    <property name="mute_on_pause">0</property>
    <property name="mlt_service">avformat-novalidate</property>
    <property name="seekable">1</property>
    <property name="aspect_ratio">1</property>
    <property name="creation_time">2020-09-12T11:23:25</property>
    <property name="global_feed">1</property>
    <property name="xml">was here</property>
    <property name="shotcut:hash">ce6fdd15d60ad97d420e5b6f062c0db4</property>
    <property name="shotcut:caption">Florence   Medici_ Brunelleschi _ the Dome.mp4</property>
    <filter id="filter10" in="00:10:45.078" out="00:10:54.721">
      <property name="start">1</property>
      <property name="level">00:00:09.176=1;00:00:09.643=0</property>
      <property name="mlt_service">brightness</property>
      <property name="shotcut:filter">fadeOutBrightness</property>
      <property name="alpha">1</property>
      <property name="shotcut:animOut">00:00:00.501</property>
    </filter>
  </producer>
  <producer id="producer39" in="00:00:00.000" out="03:59:59.993">
    <property name="length">03:59:60.027</property>
    <property name="eof">pause</property>
    <property name="resource">dreamstime_l_141205745.jpg</property>
    <property name="ttl">1</property>
    <property name="aspect_ratio">1</property>
    <property name="progressive">1</property>
    <property name="seekable">1</property>
    <property name="mlt_service">qimage</property>
    <property name="creation_time">2020-09-28T22:56:47</property>
    <property name="global_feed">1</property>
    <property name="xml">was here</property>
    <property name="shotcut:hash">d7e0bdcf46255db3f7416a72570b38e6</property>
    <property name="shotcut:caption">dreamstime_l_141205745.jpg</property>
    <filter id="filter11" out="00:00:14.715">
      <property name="background">color:#00000000</property>
      <property name="mlt_service">affine</property>
      <property name="shotcut:filter">affineSizePosition</property>
      <property name="transition.fill">1</property>
      <property name="transition.distort">0</property>
      <property name="transition.rect">00:00:00.033=-48 -32.1965 2016 1354 1;00:00:04.004~=-96 -64.3488 2112 1419 1;00:00:10.010~=-192 -129.029 2304 1548 1;00:00:14.715~=-240 -161.283 2400 1612 1</property>
      <property name="transition.valign">middle</property>
      <property name="transition.halign">center</property>
      <property name="shotcut:animIn">00:00:00.000</property>
      <property name="shotcut:animOut">00:00:00.000</property>
      <property name="transition.threads">0</property>
      <property name="transition.fix_rotate_x">0</property>
    </filter>
  </producer>
  <producer id="producer40" in="00:00:00.000" out="03:59:59.993">
    <property name="length">03:59:60.027</property>
    <property name="eof">pause</property>
    <property name="resource">cinqveordinidarc00vign_0010.jpg</property>
    <property name="ttl">1</property>
    <property name="aspect_ratio">1</property>
    <property name="progressive">1</property>
    <property name="seekable">1</property>
    <property name="mlt_service">qimage</property>
    <property name="creation_time">2020-09-23T21:12:15</property>
    <property name="global_feed">1</property>
    <property name="xml">was here</property>
    <property name="shotcut:hash">d2d20641900db446115c3e2828431629</property>
    <property name="shotcut:caption">cinqveordinidarc00vign_0010.jpg</property>
    <filter id="filter12" out="00:00:12.379">
      <property name="background">color:#00000000</property>
      <property name="mlt_service">affine</property>
      <property name="shotcut:filter">affineSizePosition</property>
      <property name="transition.fill">1</property>
      <property name="transition.distort">0</property>
      <property name="transition.rect">00:00:00.033~=0 -2040 1920.24 3137 1;00:00:12.412~=0 0 1920.24 3137 1</property>
      <property name="transition.valign">middle</property>
      <property name="transition.halign">center</property>
      <property name="shotcut:animIn">00:00:00.000</property>
      <property name="shotcut:animOut">00:00:00.000</property>
      <property name="transition.threads">0</property>
      <property name="transition.fix_rotate_x">0</property>
    </filter>
  </producer>
  <producer id="producer41" in="00:00:00.000" out="03:59:59.993">
    <property name="length">03:59:60.027</property>
    <property name="eof">pause</property>
    <property name="resource">1080p-firmitas-utilitas-venustas.png</property>
    <property name="ttl">1</property>
    <property name="aspect_ratio">1</property>
    <property name="progressive">1</property>
    <property name="seekable">1</property>
    <property name="mlt_service">qimage</property>
    <property name="creation_time">2020-09-28T23:42:27</property>
    <property name="global_feed">1</property>
    <property name="xml">was here</property>
    <property name="shotcut:hash">d60ffa1c7fbfd8a0990e681f4489b573</property>
    <property name="shotcut:caption">1080p-firmitas-utilitas-venustas.png</property>
    <filter id="filter13" out="00:00:08.542">
      <property name="background">color:#00000000</property>
      <property name="mlt_service">affine</property>
      <property name="shotcut:filter">affineSizePosition</property>
      <property name="transition.fill">1</property>
      <property name="transition.distort">0</property>
      <property name="transition.rect">00:00:00.200~=0 0 1920 1080 1;00:00:08.475~=-480 -270.298 2880 1620 1</property>
      <property name="transition.valign">middle</property>
      <property name="transition.halign">center</property>
      <property name="shotcut:animIn">00:00:00.000</property>
      <property name="shotcut:animOut">00:00:00.000</property>
      <property name="transition.threads">0</property>
    </filter>
  </producer>
  <producer id="producer42" in="00:00:00.000" out="03:59:59.993">
    <property name="length">03:59:60.027</property>
    <property name="eof">pause</property>
    <property name="resource">Da_Vinci_Vitruve_Luc_Viatour.jpg</property>
    <property name="ttl">1</property>
    <property name="aspect_ratio">1</property>
    <property name="progressive">1</property>
    <property name="seekable">1</property>
    <property name="mlt_service">qimage</property>
    <property name="creation_time">2020-09-28T02:18:27</property>
    <property name="global_feed">1</property>
    <property name="xml">was here</property>
    <property name="shotcut:hash">654b519afa63870f34ef73893ed30613</property>
    <property name="shotcut:caption">Da_Vinci_Vitruve_Luc_Viatour.jpg</property>
    <filter id="filter14" out="00:00:22.890">
      <property name="background">color:#00000000</property>
      <property name="mlt_service">affine</property>
      <property name="shotcut:filter">affineSizePosition</property>
      <property name="transition.fill">1</property>
      <property name="transition.distort">0</property>
      <property name="transition.rect">00:00:00.000~=0 0 1920.32 2643 1;00:00:22.890~=0 -1050 1920.32 2643 1</property>
      <property name="transition.valign">middle</property>
      <property name="transition.halign">center</property>
      <property name="shotcut:animIn">00:00:00.000</property>
      <property name="shotcut:animOut">00:00:00.000</property>
      <property name="transition.threads">0</property>
      <property name="transition.fix_rotate_x">0</property>
    </filter>
  </producer>
  <producer id="producer43" in="00:00:00.000" out="03:59:59.993">
    <property name="length">03:59:60.027</property>
    <property name="eof">pause</property>
    <property name="resource">Indelible-Images-Vitruvian-Man-manuscript-drawing-2.jpg__600x0_q85_upscale.jpg</property>
    <property name="ttl">1</property>
    <property name="aspect_ratio">1</property>
    <property name="progressive">1</property>
    <property name="seekable">1</property>
    <property name="mlt_service">qimage</property>
    <property name="creation_time">2020-09-23T18:01:17</property>
    <property name="global_feed">1</property>
    <property name="xml">was here</property>
    <property name="shotcut:hash">e28c0b45fcf0f0c0a983ae6eef49aca0</property>
    <property name="shotcut:caption">Indelible-Images-Vitruvian-Man-manuscript-drawing-2.jpg__600x0_q85_upscale.jpg</property>
    <filter id="filter15" out="00:00:16.683">
      <property name="background">color:#00000000</property>
      <property name="mlt_service">affine</property>
      <property name="shotcut:filter">affineSizePosition</property>
      <property name="transition.fill">1</property>
      <property name="transition.distort">0</property>
      <property name="transition.rect">00:00:00.000~=0 -883 1920.39 1962 1;00:00:16.683~=0 0 1920.39 1962 1;00:00:16.717~=0 -883 1920.39 1962 1</property>
      <property name="transition.valign">middle</property>
      <property name="transition.halign">center</property>
      <property name="shotcut:animIn">00:00:00.000</property>
      <property name="shotcut:animOut">00:00:00.000</property>
      <property name="transition.threads">0</property>
      <property name="transition.fix_rotate_x">0</property>
    </filter>
  </producer>
  <producer id="producer44" in="00:00:00.000" out="03:59:59.993">
    <property name="length">03:59:60.027</property>
    <property name="eof">pause</property>
    <property name="resource">giorgio-vitruviano.jpg</property>
    <property name="ttl">1</property>
    <property name="aspect_ratio">1</property>
    <property name="progressive">1</property>
    <property name="seekable">1</property>
    <property name="mlt_service">qimage</property>
    <property name="creation_time">2020-09-23T17:43:43</property>
    <property name="global_feed">1</property>
    <property name="xml">was here</property>
    <property name="shotcut:hash">6c59eca4da6efb7248b81572a6d5c9ea</property>
    <property name="shotcut:caption">giorgio-vitruviano.jpg</property>
    <filter id="filter16" out="00:00:15.616">
      <property name="background">color:#00000000</property>
      <property name="mlt_service">affine</property>
      <property name="shotcut:filter">affineSizePosition</property>
      <property name="transition.fill">1</property>
      <property name="transition.distort">0</property>
      <property name="transition.rect">00:00:00.367~=0 0 1920 2100 1;00:00:15.182~=0 -1016 1920.26 2100 1</property>
      <property name="transition.valign">middle</property>
      <property name="transition.halign">center</property>
      <property name="shotcut:animIn">00:00:00.000</property>
      <property name="shotcut:animOut">00:00:00.000</property>
      <property name="transition.threads">0</property>
    </filter>
  </producer>
  <producer id="producer45" in="00:00:00.000" out="03:59:59.993">
    <property name="length">03:59:60.027</property>
    <property name="eof">pause</property>
    <property name="resource">sferae.jpg</property>
    <property name="ttl">1</property>
    <property name="aspect_ratio">1</property>
    <property name="progressive">1</property>
    <property name="seekable">1</property>
    <property name="mlt_service">qimage</property>
    <property name="creation_time">2020-09-23T18:01:54</property>
    <property name="global_feed">1</property>
    <property name="xml">was here</property>
    <property name="shotcut:hash">946e884388fea88d0f5fbb2c193d4ae9</property>
    <property name="shotcut:caption">sferae.jpg</property>
    <filter id="filter17" out="00:00:44.111">
      <property name="background">color:#00000000</property>
      <property name="mlt_service">affine</property>
      <property name="shotcut:filter">affineSizePosition</property>
      <property name="transition.fill">1</property>
      <property name="transition.distort">0</property>
      <property name="transition.rect">00:00:00.667~=0 -1740 1920.13 2845 1;00:00:42.943~=0 0 1920.13 2845 1</property>
      <property name="transition.valign">middle</property>
      <property name="transition.halign">center</property>
      <property name="shotcut:animIn">00:00:00.000</property>
      <property name="shotcut:animOut">00:00:00.000</property>
      <property name="transition.threads">0</property>
      <property name="transition.fix_rotate_x">0</property>
    </filter>
  </producer>
  <producer id="producer46" in="00:00:00.000" out="03:59:59.993">
    <property name="length">03:59:60.027</property>
    <property name="eof">pause</property>
    <property name="resource">Chinese-Wooden-Loupan-Feng-Shui-Compass-pic-1A-2048-38fe030b-f.png</property>
    <property name="ttl">1</property>
    <property name="aspect_ratio">1</property>
    <property name="progressive">1</property>
    <property name="seekable">1</property>
    <property name="mlt_service">qimage</property>
    <property name="creation_time">2020-09-23T18:48:15</property>
    <property name="global_feed">1</property>
    <property name="xml">was here</property>
    <property name="shotcut:hash">0960d7fe30dcd7e6e0dd6ea268b124f2</property>
    <property name="shotcut:caption">Chinese-Wooden-Loupan-Feng-Shui-Compass-pic-1A-2048-38fe030b-f.png</property>
    <filter id="filter18" out="00:00:12.679">
      <property name="background">color:#00000000</property>
      <property name="mlt_service">affine</property>
      <property name="shotcut:filter">affineSizePosition</property>
      <property name="transition.fill">1</property>
      <property name="transition.distort">0</property>
      <property name="transition.rect">00:00:00.400~=-30 -25 2100 2100 1;00:00:12.179~=-30 -900 2100 2100 1</property>
      <property name="transition.valign">middle</property>
      <property name="transition.halign">center</property>
      <property name="shotcut:animIn">00:00:00.000</property>
      <property name="shotcut:animOut">00:00:00.000</property>
      <property name="transition.threads">0</property>
      <property name="transition.fix_rotate_x">0</property>
    </filter>
  </producer>
  <tractor id="tractor1" global_feed="1" in="00:00:00.000" out="00:00:00.300">
    <property name="shotcut:transition">lumaMix</property>
    <track producer="producer45" in="00:00:43.810" out="00:00:44.111"/>
    <track producer="producer46" in="00:00:00.000" out="00:00:00.300"/>
    <transition id="transition2" out="00:00:00.300">
      <property name="a_track">0</property>
      <property name="b_track">1</property>
      <property name="factory">loader</property>
      <property name="mlt_service">luma</property>
      <property name="alpha_over">1</property>
    </transition>
    <transition id="transition3" out="00:00:00.300">
      <property name="a_track">0</property>
      <property name="b_track">1</property>
      <property name="mlt_service">mix</property>
      <property name="start">-1</property>
      <property name="accepts_blanks">1</property>
    </transition>
  </tractor>
  <producer id="producer47" in="00:00:00.000" out="03:59:59.993">
    <property name="length">03:59:60.027</property>
    <property name="eof">pause</property>
    <property name="resource">86921-ds_48_-_francesco_di_giorgio_martini_-_disegni_di_macchine_e.jpg</property>
    <property name="ttl">1</property>
    <property name="aspect_ratio">1</property>
    <property name="progressive">1</property>
    <property name="seekable">1</property>
    <property name="mlt_service">qimage</property>
    <property name="creation_time">2020-09-23T19:03:33</property>
    <property name="global_feed">1</property>
    <property name="xml">was here</property>
    <property name="shotcut:hash">0eb6584c9fff9f94854b07f2f1962887</property>
    <property name="shotcut:caption">86921-ds_48_-_francesco_di_giorgio_martini_-_disegni_di_macchine_e.jpg</property>
    <filter id="filter19" in="00:00:00.167" out="00:00:11.245">
      <property name="background">color:#00000000</property>
      <property name="mlt_service">affine</property>
      <property name="shotcut:filter">affineSizePosition</property>
      <property name="transition.fill">1</property>
      <property name="transition.distort">0</property>
      <property name="transition.rect">00:00:00.634~=0 -174 1920 1254.07 1;00:00:10.444~=0 0 1920 1254.07 1</property>
      <property name="transition.valign">middle</property>
      <property name="transition.halign">center</property>
      <property name="shotcut:animIn">00:00:00.000</property>
      <property name="shotcut:animOut">00:00:00.000</property>
      <property name="transition.threads">0</property>
    </filter>
  </producer>
  <producer id="producer48" in="00:00:00.000" out="03:59:59.993">
    <property name="length">03:59:60.027</property>
    <property name="eof">pause</property>
    <property name="resource">di_giorgio_martini_francesco_trattato_architettura_1482.png</property>
    <property name="ttl">1</property>
    <property name="aspect_ratio">1</property>
    <property name="progressive">1</property>
    <property name="seekable">1</property>
    <property name="mlt_service">qimage</property>
    <property name="creation_time">2020-09-23T19:11:59</property>
    <property name="global_feed">1</property>
    <property name="xml">was here</property>
    <property name="shotcut:hash">7eab8cc2bb29a153353b13264d2c9edd</property>
    <property name="shotcut:caption">di_giorgio_martini_francesco_trattato_architettura_1482.png</property>
    <filter id="filter20" out="00:00:14.848">
      <property name="background">color:#00000000</property>
      <property name="mlt_service">affine</property>
      <property name="shotcut:filter">affineSizePosition</property>
      <property name="transition.fill">1</property>
      <property name="transition.distort">0</property>
      <property name="transition.rect">00:00:00.334~=0 -700 1920 1818.46 1;00:00:14.648~=0 0 1920 1818.46 1</property>
      <property name="transition.valign">middle</property>
      <property name="transition.halign">center</property>
      <property name="shotcut:animIn">00:00:00.000</property>
      <property name="shotcut:animOut">00:00:00.000</property>
      <property name="transition.threads">0</property>
      <property name="transition.fix_rotate_x">0</property>
    </filter>
  </producer>
  <producer id="producer49" in="00:00:00.000" out="03:59:59.993">
    <property name="length">03:59:60.027</property>
    <property name="eof">pause</property>
    <property name="resource">86921-ds_48_-_francesco_di_giorgio_martini_-_disegni_di_macchine_e.jpg</property>
    <property name="ttl">1</property>
    <property name="aspect_ratio">1</property>
    <property name="progressive">1</property>
    <property name="seekable">1</property>
    <property name="mlt_service">qimage</property>
    <property name="creation_time">2020-09-23T19:03:33</property>
    <property name="global_feed">1</property>
    <property name="xml">was here</property>
    <property name="shotcut:hash">0eb6584c9fff9f94854b07f2f1962887</property>
    <property name="shotcut:caption">86921-ds_48_-_francesco_di_giorgio_martini_-_disegni_di_macchine_e.jpg</property>
    <filter id="filter21" out="00:00:22.756">
      <property name="background">color:#00000000</property>
      <property name="mlt_service">affine</property>
      <property name="shotcut:filter">affineSizePosition</property>
      <property name="transition.fill">1</property>
      <property name="transition.distort">0</property>
      <property name="transition.rect">00:00:00.367~=0 -1413 3792 2476.79 1;00:00:12.546~=0 -600 3836.16 2505.64 1</property>
      <property name="transition.valign">middle</property>
      <property name="transition.halign">center</property>
      <property name="shotcut:animIn">00:00:00.000</property>
      <property name="shotcut:animOut">00:00:00.000</property>
      <property name="transition.threads">0</property>
      <property name="transition.fix_rotate_x">0</property>
    </filter>
  </producer>
  <producer id="producer50" in="00:00:00.000" out="03:59:59.993">
    <property name="length">03:59:60.027</property>
    <property name="eof">pause</property>
    <property name="resource">Giorgio-El-cuerpo-inscripto-en-la-fachada-de-una-iglesia.png</property>
    <property name="ttl">1</property>
    <property name="aspect_ratio">1</property>
    <property name="progressive">1</property>
    <property name="seekable">1</property>
    <property name="mlt_service">qimage</property>
    <property name="creation_time">2020-09-28T02:27:37</property>
    <property name="global_feed">1</property>
    <property name="xml">was here</property>
    <property name="shotcut:hash">31fe5fbd22eb3cba19de2e4c017ee067</property>
    <property name="shotcut:caption">Giorgio-El-cuerpo-inscripto-en-la-fachada-de-una-iglesia.png</property>
    <filter id="filter22" out="00:00:11.778">
      <property name="background">color:#00000000</property>
      <property name="mlt_service">affine</property>
      <property name="shotcut:filter">affineSizePosition</property>
      <property name="transition.fill">1</property>
      <property name="transition.distort">0</property>
      <property name="transition.rect">0 0 977.636 1080 1</property>
      <property name="transition.valign">middle</property>
      <property name="transition.halign">center</property>
      <property name="shotcut:animIn">00:00:00.000</property>
      <property name="shotcut:animOut">00:00:00.000</property>
      <property name="transition.threads">0</property>
      <property name="transition.fix_rotate_x">0</property>
    </filter>
  </producer>
  <tractor id="tractor2" global_feed="1" in="00:00:00.000" out="00:00:00.467">
    <property name="shotcut:transition">lumaMix</property>
    <track producer="producer49" in="00:00:22.289" out="00:00:22.756"/>
    <track producer="producer50" in="00:00:00.000" out="00:00:00.467"/>
    <transition id="transition4" out="00:00:00.467">
      <property name="a_track">0</property>
      <property name="b_track">1</property>
      <property name="factory">loader</property>
      <property name="mlt_service">luma</property>
      <property name="alpha_over">1</property>
    </transition>
    <transition id="transition5" out="00:00:00.467">
      <property name="a_track">0</property>
      <property name="b_track">1</property>
      <property name="mlt_service">mix</property>
      <property name="start">-1</property>
      <property name="accepts_blanks">1</property>
    </transition>
  </tractor>
  <producer id="producer51" in="00:00:00.000" out="03:59:59.993">
    <property name="length">03:59:60.027</property>
    <property name="eof">pause</property>
    <property name="resource">Shuteweb.jpg</property>
    <property name="ttl">1</property>
    <property name="aspect_ratio">1</property>
    <property name="progressive">1</property>
    <property name="seekable">1</property>
    <property name="mlt_service">qimage</property>
    <property name="creation_time">2020-09-29T00:50:10</property>
    <property name="global_feed">1</property>
    <property name="xml">was here</property>
    <property name="shotcut:hash">c47accddb9d682ab5cb426f1055230a3</property>
    <property name="shotcut:caption">Shuteweb.jpg</property>
    <filter id="filter23" out="00:00:17.417">
      <property name="background">color:#00000000</property>
      <property name="mlt_service">affine</property>
      <property name="shotcut:filter">affineSizePosition</property>
      <property name="transition.fill">1</property>
      <property name="transition.distort">0</property>
      <property name="transition.rect">00:00:00.501~=0 -1580 1919.92 2796 1;00:00:16.850~=0 0 1919.92 2796 1</property>
      <property name="transition.valign">middle</property>
      <property name="transition.halign">center</property>
      <property name="shotcut:animIn">00:00:00.000</property>
      <property name="shotcut:animOut">00:00:00.000</property>
      <property name="transition.threads">0</property>
      <property name="transition.fix_rotate_x">0</property>
    </filter>
  </producer>
  <producer id="producer52" in="00:00:00.000" out="03:59:59.993">
    <property name="length">03:59:60.027</property>
    <property name="eof">pause</property>
    <property name="resource">1080p-firmitas-utilitas-venustas.png</property>
    <property name="ttl">1</property>
    <property name="aspect_ratio">1</property>
    <property name="progressive">1</property>
    <property name="seekable">1</property>
    <property name="mlt_service">qimage</property>
    <property name="creation_time">2020-09-28T23:42:27</property>
    <property name="global_feed">1</property>
    <property name="xml">was here</property>
    <property name="shotcut:hash">d60ffa1c7fbfd8a0990e681f4489b573</property>
    <property name="shotcut:caption">1080p-firmitas-utilitas-venustas.png</property>
  </producer>
  <tractor id="tractor3" global_feed="1" in="00:00:00.000" out="00:00:00.467">
    <property name="shotcut:transition">lumaMix</property>
    <track producer="producer51" in="00:00:16.950" out="00:00:17.417"/>
    <track producer="producer52" in="00:00:00.200" out="00:00:00.667"/>
    <transition id="transition6" out="00:00:00.467">
      <property name="a_track">0</property>
      <property name="b_track">1</property>
      <property name="factory">loader</property>
      <property name="mlt_service">luma</property>
      <property name="alpha_over">1</property>
    </transition>
    <transition id="transition7" out="00:00:00.467">
      <property name="a_track">0</property>
      <property name="b_track">1</property>
      <property name="start">-1</property>
      <property name="accepts_blanks">1</property>
      <property name="mlt_service">mix</property>
    </transition>
  </tractor>
  <producer id="producer53" in="00:00:00.000" out="03:59:59.993">
    <property name="length">03:59:60.027</property>
    <property name="eof">pause</property>
    <property name="resource">cinqveordinidarc00vign_0010.jpg</property>
    <property name="ttl">1</property>
    <property name="aspect_ratio">1</property>
    <property name="progressive">1</property>
    <property name="seekable">1</property>
    <property name="mlt_service">qimage</property>
    <property name="creation_time">2020-09-23T21:12:15</property>
    <property name="global_feed">1</property>
    <property name="xml">was here</property>
    <property name="shotcut:hash">d2d20641900db446115c3e2828431629</property>
    <property name="shotcut:caption">cinqveordinidarc00vign_0010.jpg</property>
    <filter id="filter24" out="00:00:17.718">
      <property name="background">color:#00000000</property>
      <property name="mlt_service">affine</property>
      <property name="shotcut:filter">affineSizePosition</property>
      <property name="transition.fill">1</property>
      <property name="transition.distort">0</property>
      <property name="transition.rect">00:00:00.501~=0 -2040 1920 3137 1;00:00:17.184~=0 0 1920 3137 1</property>
      <property name="transition.valign">middle</property>
      <property name="transition.halign">center</property>
      <property name="shotcut:animIn">00:00:00.000</property>
      <property name="shotcut:animOut">00:00:00.000</property>
      <property name="transition.threads">0</property>
    </filter>
  </producer>
  <producer id="producer54" in="00:00:00.000" out="03:59:59.993">
    <property name="length">03:59:60.027</property>
    <property name="eof">pause</property>
    <property name="resource">Vignola_Regola_1562.JPG</property>
    <property name="ttl">1</property>
    <property name="aspect_ratio">1</property>
    <property name="progressive">1</property>
    <property name="seekable">1</property>
    <property name="mlt_service">qimage</property>
    <property name="creation_time">2020-09-29T00:57:14</property>
    <property name="global_feed">1</property>
    <property name="xml">was here</property>
    <property name="shotcut:hash">3bdd3e1a4be0991d659f02974cfef336</property>
    <property name="shotcut:caption">Vignola_Regola_1562.JPG</property>
    <filter id="filter25" out="00:00:07.741">
      <property name="background">color:#00000000</property>
      <property name="mlt_service">affine</property>
      <property name="shotcut:filter">affineSizePosition</property>
      <property name="transition.fill">1</property>
      <property name="transition.distort">0</property>
      <property name="transition.rect">00:00:00.501~=0 0 1919.97 2928 1;00:00:07.074~=0 -1200 1919.97 2928 1</property>
      <property name="transition.valign">middle</property>
      <property name="transition.halign">center</property>
      <property name="shotcut:animIn">00:00:00.000</property>
      <property name="shotcut:animOut">00:00:00.000</property>
      <property name="transition.threads">0</property>
      <property name="transition.fix_rotate_x">0</property>
    </filter>
  </producer>
  <producer id="producer55" in="00:00:00.000" out="03:59:59.993">
    <property name="length">03:59:60.027</property>
    <property name="eof">pause</property>
    <property name="resource">Claude_Perrault_Ordonnance_des_cinq_especes_de_colonnes_pl_I.jpg</property>
    <property name="ttl">1</property>
    <property name="aspect_ratio">1</property>
    <property name="progressive">1</property>
    <property name="seekable">1</property>
    <property name="mlt_service">qimage</property>
    <property name="creation_time">2020-08-28T21:18:40</property>
    <property name="global_feed">1</property>
    <property name="xml">was here</property>
    <property name="shotcut:hash">0ed306533428b6e7597dfa292a2b01a5</property>
    <property name="shotcut:caption">Claude_Perrault_Ordonnance_des_cinq_especes_de_colonnes_pl_I.jpg</property>
    <filter id="filter26" out="00:00:24.958">
      <property name="background">color:#00000000</property>
      <property name="mlt_service">affine</property>
      <property name="shotcut:filter">affineSizePosition</property>
      <property name="transition.fill">1</property>
      <property name="transition.distort">0</property>
      <property name="transition.rect">00:00:00.501~=0 -1650 2000 2971 1;00:00:15.549~=0 -150 2000.26 2971 1</property>
      <property name="transition.valign">middle</property>
      <property name="transition.halign">center</property>
      <property name="shotcut:animIn">00:00:00.000</property>
      <property name="shotcut:animOut">00:00:00.000</property>
      <property name="transition.threads">0</property>
    </filter>
  </producer>
  <producer id="producer56" in="00:00:00.000" out="03:59:59.993">
    <property name="length">03:59:60.027</property>
    <property name="eof">pause</property>
    <property name="resource">chitham2005-37.png</property>
    <property name="ttl">1</property>
    <property name="aspect_ratio">1</property>
    <property name="progressive">1</property>
    <property name="seekable">1</property>
    <property name="mlt_service">qimage</property>
    <property name="creation_time">2020-09-23T21:40:14</property>
    <property name="global_feed">1</property>
    <property name="xml">was here</property>
    <property name="shotcut:hash">87750a4e18425b51513494a1e2c99b13</property>
    <property name="shotcut:caption">chitham2005-37.png</property>
    <filter id="filter27" out="00:00:24.691">
      <property name="background">color:#00000000</property>
      <property name="mlt_service">affine</property>
      <property name="shotcut:filter">affineSizePosition</property>
      <property name="transition.fill">1</property>
      <property name="transition.distort">0</property>
      <property name="transition.rect">0 -163 1920 1444.94 1</property>
      <property name="transition.valign">middle</property>
      <property name="transition.halign">center</property>
      <property name="shotcut:animIn">00:00:00.000</property>
      <property name="shotcut:animOut">00:00:00.000</property>
      <property name="transition.threads">0</property>
      <property name="transition.fix_rotate_x">0</property>
    </filter>
  </producer>
  <producer id="producer57" in="00:00:00.000" out="03:59:59.993">
    <property name="length">03:59:60.027</property>
    <property name="eof">pause</property>
    <property name="resource">School_of_Athens_Raphael_detail_01.jpg</property>
    <property name="ttl">1</property>
    <property name="aspect_ratio">1</property>
    <property name="progressive">1</property>
    <property name="seekable">1</property>
    <property name="mlt_service">qimage</property>
    <property name="creation_time">2020-09-29T01:14:33</property>
    <property name="global_feed">1</property>
    <property name="xml">was here</property>
    <property name="shotcut:hash">93c480b9eb56cf08434fe39fef8a9b5c</property>
    <property name="shotcut:caption">School_of_Athens_Raphael_detail_01.jpg</property>
    <filter id="filter28" out="00:00:11.178">
      <property name="background">color:#00000000</property>
      <property name="mlt_service">affine</property>
      <property name="shotcut:filter">affineSizePosition</property>
      <property name="transition.fill">1</property>
      <property name="transition.distort">0</property>
      <property name="transition.rect">00:00:00.501~=0 -360 1920 1440.64 1;00:00:10.677~=-395 -1080 2880 2161 1</property>
      <property name="transition.valign">middle</property>
      <property name="transition.halign">center</property>
      <property name="shotcut:animIn">00:00:00.000</property>
      <property name="shotcut:animOut">00:00:00.000</property>
      <property name="transition.threads">0</property>
    </filter>
  </producer>
  <producer id="producer58" in="00:00:00.000" out="03:59:59.993">
    <property name="length">03:59:60.027</property>
    <property name="eof">pause</property>
    <property name="resource">Epogdoon-Raphael.JPG</property>
    <property name="ttl">1</property>
    <property name="aspect_ratio">1</property>
    <property name="progressive">1</property>
    <property name="seekable">1</property>
    <property name="mlt_service">qimage</property>
    <property name="creation_time">2020-09-29T01:15:44</property>
    <property name="global_feed">1</property>
    <property name="xml">was here</property>
    <property name="shotcut:hash">b511f3c28b80d977ad5d7a8c239a5932</property>
    <property name="shotcut:caption">Epogdoon-Raphael.JPG</property>
    <filter id="filter29" out="00:00:14.514">
      <property name="background">color:#00000000</property>
      <property name="mlt_service">affine</property>
      <property name="shotcut:filter">affineSizePosition</property>
      <property name="transition.fill">1</property>
      <property name="transition.distort">0</property>
      <property name="transition.rect">00:00:00.767~=-480 -1300 2880 2520.18 1;00:00:14.081~=0 -100 1920 1680 1</property>
      <property name="transition.valign">middle</property>
      <property name="transition.halign">center</property>
      <property name="shotcut:animIn">00:00:00.000</property>
      <property name="shotcut:animOut">00:00:00.000</property>
      <property name="transition.threads">0</property>
    </filter>
  </producer>
  <tractor id="tractor4" global_feed="1" in="00:00:00.000" out="00:00:00.467">
    <property name="shotcut:transition">lumaMix</property>
    <track producer="producer57" in="00:00:10.711" out="00:00:11.178"/>
    <track producer="producer58" in="00:00:00.000" out="00:00:00.467"/>
    <transition id="transition8" out="00:00:00.467">
      <property name="a_track">0</property>
      <property name="b_track">1</property>
      <property name="factory">loader</property>
      <property name="mlt_service">luma</property>
      <property name="alpha_over">1</property>
    </transition>
    <transition id="transition9" out="00:00:00.467">
      <property name="a_track">0</property>
      <property name="b_track">1</property>
      <property name="start">-1</property>
      <property name="accepts_blanks">1</property>
      <property name="mlt_service">mix</property>
    </transition>
  </tractor>
  <producer id="producer59" in="00:00:00.000" out="03:59:59.993">
    <property name="length">03:59:60.027</property>
    <property name="eof">pause</property>
    <property name="resource">cesariano.png</property>
    <property name="ttl">1</property>
    <property name="aspect_ratio">1</property>
    <property name="progressive">1</property>
    <property name="seekable">1</property>
    <property name="mlt_service">qimage</property>
    <property name="creation_time">2020-09-29T01:30:42</property>
    <property name="global_feed">1</property>
    <property name="xml">was here</property>
    <property name="shotcut:hash">2dbb6f8e4d27b5ee213678527302973e</property>
    <property name="shotcut:caption">cesariano.png</property>
    <filter id="filter30" out="00:00:10.077">
      <property name="background">color:#00000000</property>
      <property name="mlt_service">affine</property>
      <property name="shotcut:filter">affineSizePosition</property>
      <property name="transition.fill">1</property>
      <property name="transition.distort">0</property>
      <property name="transition.rect">00:00:00.501~=0 -640 1920 1715.47 1;00:00:09.543~=0 0 1920 1715.47 1</property>
      <property name="transition.valign">middle</property>
      <property name="transition.halign">center</property>
      <property name="shotcut:animIn">00:00:00.000</property>
      <property name="shotcut:animOut">00:00:00.000</property>
      <property name="transition.threads">0</property>
    </filter>
  </producer>
  <producer id="producer60" in="00:00:00.000" out="03:59:59.993">
    <property name="length">03:59:60.027</property>
    <property name="eof">pause</property>
    <property name="resource">alberti-gulbenkian.webp</property>
    <property name="ttl">1</property>
    <property name="aspect_ratio">1</property>
    <property name="progressive">1</property>
    <property name="seekable">1</property>
    <property name="mlt_service">qimage</property>
    <property name="creation_time">2020-09-24T00:05:32</property>
    <property name="global_feed">1</property>
    <property name="xml">was here</property>
    <property name="shotcut:hash">129e18151b12c68418137ad98a024e7d</property>
    <property name="shotcut:caption">alberti-gulbenkian.webp</property>
    <filter id="filter31" out="00:00:16.183">
      <property name="background">color:#00000000</property>
      <property name="mlt_service">affine</property>
      <property name="shotcut:filter">affineSizePosition</property>
      <property name="transition.fill">1</property>
      <property name="transition.distort">0</property>
      <property name="transition.rect">1310 45 480 720 1</property>
      <property name="transition.valign">middle</property>
      <property name="transition.halign">center</property>
      <property name="shotcut:animIn">00:00:00.000</property>
      <property name="shotcut:animOut">00:00:00.000</property>
      <property name="transition.threads">0</property>
      <property name="transition.fix_rotate_x">0</property>
    </filter>
    <filter id="filter32" out="00:00:16.183">
      <property name="start">1</property>
      <property name="level">00:00:00.000=0;00:00:00.467=1</property>
      <property name="mlt_service">brightness</property>
      <property name="shotcut:filter">fadeInBrightness</property>
      <property name="alpha">1</property>
      <property name="shotcut:animIn">00:00:00.501</property>
    </filter>
    <filter id="filter33" out="00:00:16.183">
      <property name="start">1</property>
      <property name="level">00:00:15.682=1;00:00:16.183=0</property>
      <property name="mlt_service">brightness</property>
      <property name="shotcut:filter">fadeOutBrightness</property>
      <property name="alpha">1</property>
      <property name="shotcut:animOut">00:00:00.534</property>
    </filter>
  </producer>
  <playlist id="playlist2">
    <property name="shotcut:video">1</property>
    <property name="shotcut:name">Imagens</property>
    <property name="shotcut:lock">0</property>
    <blank length="00:00:41.675"/>
    <entry producer="producer35" in="00:03:47.848" out="00:03:51.785"/>
    <entry producer="producer36" in="00:09:17.451" out="00:09:24.024"/>
    <entry producer="producer37" in="00:10:24.892" out="00:10:28.061"/>
    <entry producer="producer38" in="00:10:45.078" out="00:10:54.721"/>
    <blank length="00:00:25.959"/>
    <entry producer="producer39" in="00:00:00.000" out="00:00:14.715"/>
    <entry producer="producer40" in="00:00:00.000" out="00:00:12.379"/>
    <entry producer="producer41" in="00:00:00.000" out="00:00:08.542"/>
    <entry producer="producer42" in="00:00:00.000" out="00:00:22.890"/>
    <entry producer="producer43" in="00:00:00.000" out="00:00:16.683"/>
    <entry producer="producer44" in="00:00:00.000" out="00:00:15.616"/>
    <entry producer="producer45" in="00:00:00.000" out="00:00:43.777"/>
    <entry producer="tractor1" in="00:00:00.000" out="00:00:00.300"/>
    <entry producer="producer46" in="00:00:00.334" out="00:00:12.679"/>
    <entry producer="producer47" in="00:00:00.167" out="00:00:11.245"/>
    <entry producer="producer48" in="00:00:00.000" out="00:00:14.848"/>
    <entry producer="producer49" in="00:00:00.000" out="00:00:22.256"/>
    <entry producer="tractor2" in="00:00:00.000" out="00:00:00.467"/>
    <entry producer="producer50" in="00:00:00.501" out="00:00:11.778"/>
    <entry producer="producer51" in="00:00:00.000" out="00:00:16.917"/>
    <entry producer="tractor3" in="00:00:00.000" out="00:00:00.467"/>
    <entry producer="producer52" in="00:00:00.701" out="00:00:03.971"/>
    <entry producer="producer53" in="00:00:00.000" out="00:00:17.718"/>
    <entry producer="producer54" in="00:00:00.000" out="00:00:07.741"/>
    <entry producer="producer55" in="00:00:00.000" out="00:00:24.958"/>
    <entry producer="producer56" in="00:00:00.000" out="00:00:24.691"/>
    <entry producer="producer57" in="00:00:00.000" out="00:00:10.677"/>
    <entry producer="tractor4" in="00:00:00.000" out="00:00:00.467"/>
    <entry producer="producer58" in="00:00:00.501" out="00:00:14.514"/>
    <entry producer="producer59" in="00:00:00.000" out="00:00:10.077"/>
    <blank length="00:00:19.152"/>
    <entry producer="producer60" in="00:00:00.000" out="00:00:16.183"/>
  </playlist>
  <producer id="producer61" in="00:00:00.000" out="03:59:59.993">
    <property name="length">03:59:60.027</property>
    <property name="eof">pause</property>
    <property name="resource">Estudio_Martini.jpg</property>
    <property name="ttl">1</property>
    <property name="aspect_ratio">1</property>
    <property name="progressive">1</property>
    <property name="seekable">1</property>
    <property name="mlt_service">qimage</property>
    <property name="creation_time">2020-09-29T00:29:32</property>
    <property name="global_feed">1</property>
    <property name="xml">was here</property>
    <property name="shotcut:hash">ae454d3ae8755d9932852e5e8af3d471</property>
    <property name="shotcut:caption">Estudio_Martini.jpg</property>
    <filter id="filter34" out="00:00:16.316">
      <property name="background">color:#00000000</property>
      <property name="mlt_service">affine</property>
      <property name="shotcut:filter">affineSizePosition</property>
      <property name="transition.fill">1</property>
      <property name="transition.distort">0</property>
      <property name="transition.rect">978.855 -3 940.8 1493 1</property>
      <property name="transition.valign">middle</property>
      <property name="transition.halign">center</property>
      <property name="shotcut:animIn">00:00:00.000</property>
      <property name="shotcut:animOut">00:00:00.000</property>
      <property name="transition.threads">0</property>
      <property name="transition.fix_rotate_x">0</property>
    </filter>
    <filter id="filter35" out="00:00:16.316">
      <property name="start">1</property>
      <property name="level">1</property>
      <property name="mlt_service">brightness</property>
      <property name="shotcut:filter">fadeInBrightness</property>
      <property name="alpha">00:00:00.000=0;00:00:00.501=1</property>
      <property name="shotcut:animIn">00:00:00.534</property>
    </filter>
  </producer>
  <producer id="producer62" in="00:00:00.000" out="03:59:59.993">
    <property name="length">03:59:60.027</property>
    <property name="eof">pause</property>
    <property name="resource">Figura_umana_sovrapposta_alla_pianta_di_una_cittadella.jpg</property>
    <property name="ttl">1</property>
    <property name="aspect_ratio">1</property>
    <property name="progressive">1</property>
    <property name="seekable">1</property>
    <property name="mlt_service">qimage</property>
    <property name="creation_time">2020-09-29T00:42:53</property>
    <property name="global_feed">1</property>
    <property name="xml">was here</property>
    <property name="shotcut:hash">de039aca654e281c7011352d929ce1e7</property>
    <property name="shotcut:caption">Figura_umana_sovrapposta_alla_pianta_di_una_cittadella.jpg</property>
    <filter id="filter36" out="00:00:05.172">
      <property name="background">color:#00000000</property>
      <property name="mlt_service">affine</property>
      <property name="shotcut:filter">affineSizePosition</property>
      <property name="transition.fill">1</property>
      <property name="transition.distort">0</property>
      <property name="transition.rect">981 -150 933.24 2415 1</property>
      <property name="transition.valign">middle</property>
      <property name="transition.halign">center</property>
      <property name="shotcut:animIn">00:00:00.000</property>
      <property name="shotcut:animOut">00:00:00.000</property>
      <property name="transition.threads">0</property>
    </filter>
  </producer>
  <tractor id="tractor5" global_feed="1" in="00:00:00.000" out="00:00:00.434">
    <property name="shotcut:transition">lumaMix</property>
    <track producer="producer61" in="00:00:15.883" out="00:00:16.316"/>
    <track producer="producer62" in="00:00:00.000" out="00:00:00.434"/>
    <transition id="transition10" out="00:00:00.434">
      <property name="a_track">0</property>
      <property name="b_track">1</property>
      <property name="factory">loader</property>
      <property name="mlt_service">luma</property>
      <property name="alpha_over">1</property>
    </transition>
    <transition id="transition11" out="00:00:00.434">
      <property name="a_track">0</property>
      <property name="b_track">1</property>
      <property name="start">-1</property>
      <property name="accepts_blanks">1</property>
      <property name="mlt_service">mix</property>
    </transition>
  </tractor>
  <playlist id="playlist3">
    <property name="shotcut:video">1</property>
    <property name="shotcut:name">Imagens 2</property>
    <blank length="00:04:37.671"/>
    <entry producer="producer61" in="00:00:00.000" out="00:00:15.849"/>
    <entry producer="tractor5" in="00:00:00.000" out="00:00:00.434"/>
    <entry producer="producer62" in="00:00:00.467" out="00:00:05.172"/>
  </playlist>
  <producer id="producer63" in="00:00:00.000" out="03:59:59.993">
    <property name="length">03:59:60.027</property>
    <property name="eof">pause</property>
    <property name="resource">#00000000</property>
    <property name="aspect_ratio">1</property>
    <property name="mlt_service">color</property>
    <property name="mlt_image_format">rgb24a</property>
    <property name="shotcut:caption">transparent</property>
    <property name="shotcut:detail">transparent</property>
    <property name="ignore_points">0</property>
    <property name="global_feed">1</property>
    <property name="xml">was here</property>
    <property name="seekable">1</property>
    <filter id="filter37" out="00:00:03.604">
      <property name="argument">ARQUITETURA DO HUMANISMO</property>
      <property name="geometry">0 0 1920 1080 1</property>
      <property name="family">Trajan Pro</property>
      <property name="size">96</property>
      <property name="weight">500</property>
      <property name="style">normal</property>
      <property name="fgcolour">#f0ecd6</property>
      <property name="bgcolour">#00000000</property>
      <property name="olcolour">#aa000000</property>
      <property name="pad">0</property>
      <property name="halign">center</property>
      <property name="valign">middle</property>
      <property name="outline">0</property>
      <property name="mlt_service">dynamictext</property>
      <property name="shotcut:filter">dynamicText</property>
      <property name="shotcut:usePointSize">1</property>
      <property name="shotcut:pointSize">96</property>
    </filter>
    <filter id="filter38" out="00:00:03.604">
      <property name="start">1</property>
      <property name="level">1</property>
      <property name="mlt_service">brightness</property>
      <property name="shotcut:filter">fadeOutBrightness</property>
      <property name="alpha">00:00:03.136=1;00:00:03.604=0</property>
      <property name="shotcut:animOut">00:00:00.501</property>
    </filter>
    <filter id="filter39" out="00:00:03.604">
      <property name="start">1</property>
      <property name="level">1</property>
      <property name="mlt_service">brightness</property>
      <property name="shotcut:filter">fadeInBrightness</property>
      <property name="alpha">00:00:00.000=0;00:00:00.467=1</property>
      <property name="shotcut:animIn">00:00:00.501</property>
    </filter>
    <filter id="filter40" out="00:00:03.604">
      <property name="window">75</property>
      <property name="max_gain">20dB</property>
      <property name="level">00:00:00.000=-60;00:00:00.467=0</property>
      <property name="mlt_service">volume</property>
      <property name="shotcut:filter">fadeInVolume</property>
      <property name="shotcut:animIn">15</property>
    </filter>
  </producer>
  <playlist id="playlist4">
    <property name="shotcut:video">1</property>
    <property name="shotcut:name">Texto</property>
    <property name="shotcut:lock">0</property>
    <blank length="00:00:01.335"/>
    <entry producer="producer63" in="00:00:00.000" out="00:00:03.604"/>
  </playlist>
  <producer id="producer64" in="00:00:00.000" out="00:08:58.025">
    <property name="length">00:08:58.058</property>
    <property name="eof">pause</property>
    <property name="resource">04.1-slides.mp3</property>
    <property name="audio_index">0</property>
    <property name="video_index">-1</property>
    <property name="mute_on_pause">0</property>
    <property name="mlt_service">avformat-novalidate</property>
    <property name="seekable">1</property>
    <property name="creation_time">2020-09-28T21:30:44</property>
    <property name="global_feed">1</property>
    <property name="xml">was here</property>
    <property name="shotcut:hash">a6d715310bcb5e425f51fd72c1882d56</property>
    <property name="ignore_points">0</property>
    <property name="shotcut:caption">04.1-slides.mp3</property>
    <filter id="filter41" in="00:00:06.773" out="00:01:51.752">
      <property name="window">75</property>
      <property name="max_gain">20dB</property>
      <property name="level">-70</property>
      <property name="mlt_service">volume</property>
    </filter>
  </producer>
  <producer id="producer65" in="00:00:00.000" out="00:08:58.025">
    <property name="length">00:08:58.058</property>
    <property name="eof">pause</property>
    <property name="resource">04.1-slides.mp3</property>
    <property name="audio_index">0</property>
    <property name="video_index">-1</property>
    <property name="mute_on_pause">0</property>
    <property name="mlt_service">avformat-novalidate</property>
    <property name="seekable">1</property>
    <property name="creation_time">2020-09-28T21:30:44</property>
    <property name="global_feed">1</property>
    <property name="xml">was here</property>
    <property name="shotcut:hash">a6d715310bcb5e425f51fd72c1882d56</property>
    <property name="ignore_points">0</property>
    <property name="shotcut:caption">04.1-slides.mp3</property>
  </producer>
  <producer id="producer66" in="00:00:00.000" out="00:08:58.025">
    <property name="length">00:08:58.058</property>
    <property name="eof">pause</property>
    <property name="resource">04.1-slides.mp3</property>
    <property name="audio_index">0</property>
    <property name="video_index">-1</property>
    <property name="mute_on_pause">0</property>
    <property name="mlt_service">avformat-novalidate</property>
    <property name="seekable">1</property>
    <property name="creation_time">2020-09-28T21:30:44</property>
    <property name="global_feed">1</property>
    <property name="xml">was here</property>
    <property name="shotcut:hash">a6d715310bcb5e425f51fd72c1882d56</property>
    <property name="ignore_points">0</property>
    <property name="shotcut:caption">04.1-slides.mp3</property>
  </producer>
  <producer id="producer67" in="00:00:00.000" out="00:08:58.025">
    <property name="length">00:08:58.058</property>
    <property name="eof">pause</property>
    <property name="resource">04.1-slides.mp3</property>
    <property name="audio_index">0</property>
    <property name="video_index">-1</property>
    <property name="mute_on_pause">0</property>
    <property name="mlt_service">avformat-novalidate</property>
    <property name="seekable">1</property>
    <property name="creation_time">2020-09-28T21:30:44</property>
    <property name="global_feed">1</property>
    <property name="xml">was here</property>
    <property name="shotcut:hash">a6d715310bcb5e425f51fd72c1882d56</property>
    <property name="ignore_points">0</property>
    <property name="shotcut:caption">04.1-slides.mp3</property>
  </producer>
  <producer id="producer68" in="00:00:00.000" out="00:08:58.025">
    <property name="length">00:08:58.058</property>
    <property name="eof">pause</property>
    <property name="resource">04.1-slides.mp3</property>
    <property name="audio_index">0</property>
    <property name="video_index">-1</property>
    <property name="mute_on_pause">0</property>
    <property name="mlt_service">avformat-novalidate</property>
    <property name="seekable">1</property>
    <property name="creation_time">2020-09-28T21:30:44</property>
    <property name="global_feed">1</property>
    <property name="xml">was here</property>
    <property name="shotcut:hash">a6d715310bcb5e425f51fd72c1882d56</property>
    <property name="ignore_points">0</property>
    <property name="shotcut:caption">04.1-slides.mp3</property>
  </producer>
  <producer id="producer69" in="00:00:00.000" out="00:08:58.025">
    <property name="length">00:08:58.058</property>
    <property name="eof">pause</property>
    <property name="resource">04.1-slides.mp3</property>
    <property name="audio_index">0</property>
    <property name="video_index">-1</property>
    <property name="mute_on_pause">0</property>
    <property name="mlt_service">avformat-novalidate</property>
    <property name="seekable">1</property>
    <property name="creation_time">2020-09-28T21:30:44</property>
    <property name="global_feed">1</property>
    <property name="xml">was here</property>
    <property name="shotcut:hash">a6d715310bcb5e425f51fd72c1882d56</property>
    <property name="ignore_points">0</property>
    <property name="shotcut:caption">04.1-slides.mp3</property>
  </producer>
  <producer id="producer70" in="00:00:00.000" out="00:08:58.025">
    <property name="length">00:08:58.058</property>
    <property name="eof">pause</property>
    <property name="resource">04.1-slides.mp3</property>
    <property name="audio_index">0</property>
    <property name="video_index">-1</property>
    <property name="mute_on_pause">0</property>
    <property name="mlt_service">avformat-novalidate</property>
    <property name="seekable">1</property>
    <property name="creation_time">2020-09-28T21:30:44</property>
    <property name="global_feed">1</property>
    <property name="xml">was here</property>
    <property name="shotcut:hash">a6d715310bcb5e425f51fd72c1882d56</property>
    <property name="ignore_points">0</property>
    <property name="shotcut:caption">04.1-slides.mp3</property>
  </producer>
  <producer id="producer71" in="00:00:00.000" out="00:08:58.025">
    <property name="length">00:08:58.058</property>
    <property name="eof">pause</property>
    <property name="resource">04.1-slides.mp3</property>
    <property name="audio_index">0</property>
    <property name="video_index">-1</property>
    <property name="mute_on_pause">0</property>
    <property name="mlt_service">avformat-novalidate</property>
    <property name="seekable">1</property>
    <property name="creation_time">2020-09-28T21:30:44</property>
    <property name="global_feed">1</property>
    <property name="xml">was here</property>
    <property name="shotcut:hash">a6d715310bcb5e425f51fd72c1882d56</property>
    <property name="ignore_points">0</property>
    <property name="shotcut:caption">04.1-slides.mp3</property>
  </producer>
  <producer id="producer72" in="00:00:00.000" out="00:08:58.025">
    <property name="length">00:08:58.058</property>
    <property name="eof">pause</property>
    <property name="resource">04.1-slides.mp3</property>
    <property name="audio_index">0</property>
    <property name="video_index">-1</property>
    <property name="mute_on_pause">0</property>
    <property name="mlt_service">avformat-novalidate</property>
    <property name="seekable">1</property>
    <property name="creation_time">2020-09-28T21:30:44</property>
    <property name="global_feed">1</property>
    <property name="xml">was here</property>
    <property name="shotcut:hash">a6d715310bcb5e425f51fd72c1882d56</property>
    <property name="ignore_points">0</property>
    <property name="shotcut:caption">04.1-slides.mp3</property>
  </producer>
  <producer id="producer73" in="00:00:00.000" out="00:08:58.025">
    <property name="length">00:08:58.058</property>
    <property name="eof">pause</property>
    <property name="resource">04.1-slides.mp3</property>
    <property name="audio_index">0</property>
    <property name="video_index">-1</property>
    <property name="mute_on_pause">0</property>
    <property name="mlt_service">avformat-novalidate</property>
    <property name="seekable">1</property>
    <property name="creation_time">2020-09-28T21:30:44</property>
    <property name="global_feed">1</property>
    <property name="xml">was here</property>
    <property name="shotcut:hash">a6d715310bcb5e425f51fd72c1882d56</property>
    <property name="ignore_points">0</property>
    <property name="shotcut:caption">04.1-slides.mp3</property>
  </producer>
  <producer id="producer74" in="00:00:00.000" out="00:08:58.025">
    <property name="length">00:08:58.058</property>
    <property name="eof">pause</property>
    <property name="resource">04.1-slides.mp3</property>
    <property name="audio_index">0</property>
    <property name="video_index">-1</property>
    <property name="mute_on_pause">0</property>
    <property name="mlt_service">avformat-novalidate</property>
    <property name="seekable">1</property>
    <property name="creation_time">2020-09-28T21:30:44</property>
    <property name="global_feed">1</property>
    <property name="xml">was here</property>
    <property name="shotcut:hash">a6d715310bcb5e425f51fd72c1882d56</property>
    <property name="ignore_points">0</property>
    <property name="shotcut:caption">04.1-slides.mp3</property>
  </producer>
  <producer id="producer75" in="00:00:00.000" out="00:08:58.025">
    <property name="length">00:08:58.058</property>
    <property name="eof">pause</property>
    <property name="resource">04.1-slides.mp3</property>
    <property name="audio_index">0</property>
    <property name="video_index">-1</property>
    <property name="mute_on_pause">0</property>
    <property name="mlt_service">avformat-novalidate</property>
    <property name="seekable">1</property>
    <property name="creation_time">2020-09-28T21:30:44</property>
    <property name="global_feed">1</property>
    <property name="xml">was here</property>
    <property name="shotcut:hash">a6d715310bcb5e425f51fd72c1882d56</property>
    <property name="ignore_points">0</property>
    <property name="shotcut:caption">04.1-slides.mp3</property>
  </producer>
  <producer id="producer76" in="00:00:00.000" out="00:08:58.025">
    <property name="length">00:08:58.058</property>
    <property name="eof">pause</property>
    <property name="resource">04.1-slides.mp3</property>
    <property name="audio_index">0</property>
    <property name="video_index">-1</property>
    <property name="mute_on_pause">0</property>
    <property name="mlt_service">avformat-novalidate</property>
    <property name="seekable">1</property>
    <property name="creation_time">2020-09-28T21:30:44</property>
    <property name="global_feed">1</property>
    <property name="xml">was here</property>
    <property name="shotcut:hash">a6d715310bcb5e425f51fd72c1882d56</property>
    <property name="ignore_points">0</property>
    <property name="shotcut:caption">04.1-slides.mp3</property>
  </producer>
  <producer id="producer77" in="00:00:00.000" out="00:08:58.025">
    <property name="length">00:08:58.058</property>
    <property name="eof">pause</property>
    <property name="resource">04.1-slides.mp3</property>
    <property name="audio_index">0</property>
    <property name="video_index">-1</property>
    <property name="mute_on_pause">0</property>
    <property name="mlt_service">avformat-novalidate</property>
    <property name="seekable">1</property>
    <property name="creation_time">2020-09-28T21:30:44</property>
    <property name="global_feed">1</property>
    <property name="xml">was here</property>
    <property name="shotcut:hash">a6d715310bcb5e425f51fd72c1882d56</property>
    <property name="ignore_points">0</property>
    <property name="shotcut:caption">04.1-slides.mp3</property>
  </producer>
  <producer id="producer78" in="00:00:00.000" out="00:08:58.025">
    <property name="length">00:08:58.058</property>
    <property name="eof">pause</property>
    <property name="resource">04.1-slides.mp3</property>
    <property name="audio_index">0</property>
    <property name="video_index">-1</property>
    <property name="mute_on_pause">0</property>
    <property name="mlt_service">avformat-novalidate</property>
    <property name="seekable">1</property>
    <property name="creation_time">2020-09-28T21:30:44</property>
    <property name="global_feed">1</property>
    <property name="xml">was here</property>
    <property name="shotcut:hash">a6d715310bcb5e425f51fd72c1882d56</property>
    <property name="ignore_points">0</property>
    <property name="shotcut:caption">04.1-slides.mp3</property>
  </producer>
  <producer id="producer79" in="00:00:00.000" out="00:08:58.025">
    <property name="length">00:08:58.058</property>
    <property name="eof">pause</property>
    <property name="resource">04.1-slides.mp3</property>
    <property name="audio_index">0</property>
    <property name="video_index">-1</property>
    <property name="mute_on_pause">0</property>
    <property name="mlt_service">avformat-novalidate</property>
    <property name="seekable">1</property>
    <property name="creation_time">2020-09-28T21:30:44</property>
    <property name="global_feed">1</property>
    <property name="xml">was here</property>
    <property name="shotcut:hash">a6d715310bcb5e425f51fd72c1882d56</property>
    <property name="ignore_points">0</property>
    <property name="shotcut:caption">04.1-slides.mp3</property>
  </producer>
  <producer id="producer80" in="00:00:00.000" out="00:08:58.025">
    <property name="length">00:08:58.058</property>
    <property name="eof">pause</property>
    <property name="resource">04.1-slides.mp3</property>
    <property name="audio_index">0</property>
    <property name="video_index">-1</property>
    <property name="mute_on_pause">0</property>
    <property name="mlt_service">avformat-novalidate</property>
    <property name="seekable">1</property>
    <property name="creation_time">2020-09-28T21:30:44</property>
    <property name="global_feed">1</property>
    <property name="xml">was here</property>
    <property name="shotcut:hash">a6d715310bcb5e425f51fd72c1882d56</property>
    <property name="ignore_points">0</property>
    <property name="shotcut:caption">04.1-slides.mp3</property>
  </producer>
  <producer id="producer81" in="00:00:00.000" out="00:08:58.025">
    <property name="length">00:08:58.058</property>
    <property name="eof">pause</property>
    <property name="resource">04.1-slides.mp3</property>
    <property name="audio_index">0</property>
    <property name="video_index">-1</property>
    <property name="mute_on_pause">0</property>
    <property name="mlt_service">avformat-novalidate</property>
    <property name="seekable">1</property>
    <property name="creation_time">2020-09-28T21:30:44</property>
    <property name="global_feed">1</property>
    <property name="xml">was here</property>
    <property name="shotcut:hash">a6d715310bcb5e425f51fd72c1882d56</property>
    <property name="ignore_points">0</property>
    <property name="shotcut:caption">04.1-slides.mp3</property>
  </producer>
  <producer id="producer82" in="00:00:00.000" out="00:08:58.025">
    <property name="length">00:08:58.058</property>
    <property name="eof">pause</property>
    <property name="resource">04.1-slides.mp3</property>
    <property name="audio_index">0</property>
    <property name="video_index">-1</property>
    <property name="mute_on_pause">0</property>
    <property name="mlt_service">avformat-novalidate</property>
    <property name="seekable">1</property>
    <property name="creation_time">2020-09-28T21:30:44</property>
    <property name="global_feed">1</property>
    <property name="xml">was here</property>
    <property name="shotcut:hash">a6d715310bcb5e425f51fd72c1882d56</property>
    <property name="ignore_points">1</property>
    <property name="shotcut:caption">04.1-slides.mp3</property>
    <filter id="filter42" in="00:07:59.059" out="00:08:58.025">
      <property name="window">75</property>
      <property name="max_gain">20dB</property>
      <property name="level">-70</property>
      <property name="mlt_service">volume</property>
    </filter>
  </producer>
  <playlist id="playlist5">
    <property name="shotcut:audio">1</property>
    <property name="shotcut:name">A1</property>
    <property name="shotcut:lock">0</property>
    <entry producer="producer64" in="00:00:06.773" out="00:01:51.752"/>
    <entry producer="producer65" in="00:01:51.785" out="00:03:41.775"/>
    <entry producer="producer66" in="00:03:42.576" out="00:03:52.653"/>
    <entry producer="producer67" in="00:03:55.322" out="00:04:08.809"/>
    <entry producer="producer68" in="00:04:11.812" out="00:04:51.952"/>
    <entry producer="producer69" in="00:04:58.492" out="00:05:17.751"/>
    <entry producer="producer70" in="00:05:21.655" out="00:05:38.372"/>
    <entry producer="producer71" in="00:05:38.639" out="00:05:45.412"/>
    <entry producer="producer72" in="00:05:48.015" out="00:06:13.547"/>
    <entry producer="producer73" in="00:06:14.281" out="00:06:18.886"/>
    <entry producer="producer74" in="00:06:19.219" out="00:06:24.558"/>
    <entry producer="producer75" in="00:06:25.492" out="00:06:36.870"/>
    <entry producer="producer76" in="00:06:38.238" out="00:06:52.386"/>
    <entry producer="producer77" in="00:06:52.819" out="00:07:00.767"/>
    <entry producer="producer78" in="00:07:01.568" out="00:07:04.872"/>
    <entry producer="producer79" in="00:07:06.840" out="00:07:27.427"/>
    <entry producer="producer80" in="00:07:27.694" out="00:07:42.175"/>
    <entry producer="producer81" in="00:07:42.910" out="00:07:59.026"/>
    <entry producer="producer82" in="00:07:59.059" out="00:08:58.025"/>
  </playlist>
  <tractor id="tractor6" title="Shotcut version 20.09.13" global_feed="1" in="00:00:00.000" out="00:08:36.603">
    <property name="shotcut">1</property>
    <property name="shotcut:projectAudioChannels">2</property>
    <property name="shotcut:projectFolder">1</property>
    <property name="shotcut:trackHeight">30</property>
    <property name="shotcut:scaleFactor">0.783021</property>
    <track producer="background"/>
    <track producer="playlist0"/>
    <track producer="playlist1"/>
    <track producer="playlist2" hide="audio"/>
    <track producer="playlist3"/>
    <track producer="playlist4" hide="audio"/>
    <track producer="playlist5" hide="video"/>
    <transition id="transition12">
      <property name="a_track">0</property>
      <property name="b_track">1</property>
      <property name="mlt_service">mix</property>
      <property name="always_active">1</property>
      <property name="sum">1</property>
    </transition>
    <transition id="transition13">
      <property name="a_track">0</property>
      <property name="b_track">1</property>
      <property name="version">0.9</property>
      <property name="mlt_service">frei0r.cairoblend</property>
      <property name="disable">1</property>
    </transition>
    <transition id="transition14">
      <property name="a_track">1</property>
      <property name="b_track">2</property>
      <property name="version">0.9</property>
      <property name="mlt_service">frei0r.cairoblend</property>
    </transition>
    <transition id="transition15">
      <property name="a_track">1</property>
      <property name="b_track">3</property>
      <property name="version">0.9</property>
      <property name="mlt_service">frei0r.cairoblend</property>
    </transition>
    <transition id="transition16">
      <property name="a_track">1</property>
      <property name="b_track">4</property>
      <property name="version">0.9</property>
      <property name="mlt_service">frei0r.cairoblend</property>
    </transition>
    <transition id="transition17">
      <property name="a_track">0</property>
      <property name="b_track">5</property>
      <property name="mlt_service">mix</property>
      <property name="always_active">1</property>
      <property name="sum">1</property>
    </transition>
    <transition id="transition18">
      <property name="a_track">1</property>
      <property name="b_track">5</property>
      <property name="version">0.9</property>
      <property name="mlt_service">frei0r.cairoblend</property>
      <property name="disable">0</property>
    </transition>
    <transition id="transition19">
      <property name="a_track">0</property>
      <property name="b_track">2</property>
      <property name="mlt_service">mix</property>
      <property name="always_active">1</property>
      <property name="sum">1</property>
    </transition>
    <transition id="transition20">
      <property name="a_track">0</property>
      <property name="b_track">3</property>
      <property name="mlt_service">mix</property>
      <property name="always_active">1</property>
      <property name="sum">1</property>
    </transition>
    <transition id="transition21">
      <property name="a_track">0</property>
      <property name="b_track">6</property>
      <property name="mlt_service">mix</property>
      <property name="always_active">1</property>
      <property name="sum">1</property>
    </transition>
    <transition id="transition22">
      <property name="a_track">0</property>
      <property name="b_track">4</property>
      <property name="mlt_service">mix</property>
      <property name="always_active">1</property>
      <property name="sum">1</property>
    </transition>
  </tractor>
</mlt>
